<?xml version="1.0" encoding="UTF-8"?>
<!-- Generator: visioncortex VTracer 0.6.3 -->
<svg version="1.1" xmlns="http://www.w3.org/2000/svg" width="1280" height="1280">
<path d="M0 0 C324.06 0 648.12 0 982 0 C982.33 4.62 982.66 9.24 983 14 C986.46 18.68 989.49 20.81 994.56 23.44 C1000.79 26.7 1004.3 31.6 1006.75 38.12 C1009.31 46.98 1010.05 56.21 1010.54 65.38 C1010.59 66.16 1010.63 66.94 1010.67 67.75 C1011.09 75.99 1011.16 84.21 1011.16 92.46 C1011.17 94.11 1011.17 95.77 1011.18 97.43 C1011.19 101.87 1011.2 106.32 1011.2 110.76 C1011.2 113.55 1011.21 116.34 1011.21 119.13 C1011.23 127.9 1011.24 136.66 1011.24 145.43 C1011.24 155.48 1011.26 165.52 1011.29 175.57 C1011.31 183.39 1011.32 191.21 1011.32 199.03 C1011.32 203.68 1011.33 208.33 1011.35 212.98 C1011.36 217.35 1011.37 221.73 1011.36 226.1 C1011.36 227.69 1011.36 229.28 1011.37 230.87 C1011.47 247.04 1011.23 267.19 999.5 279.59 C996.22 282.67 994.25 283.95 989.69 284.12 C981.93 281.76 977.68 275.89 973.49 269.27 C970.07 264.05 966.36 259.61 960.94 256.44 C952.21 251.3 948.73 243.55 946 234 C944.19 225.47 943.71 217.22 943.74 208.51 C943.74 206.53 943.73 204.55 943.73 202.57 C943.72 200.46 943.72 198.36 943.73 196.25 C943.73 191.83 943.71 187.41 943.7 182.99 C943.65 170.43 943.63 157.86 943.62 145.3 C943.62 138.34 943.6 131.39 943.56 124.43 C943.55 120.76 943.54 117.1 943.55 113.43 C944.94 87.59 944.94 87.59 935 65 C931.71 63.58 931.71 63.58 928.06 62.75 C926.86 62.44 925.65 62.12 924.41 61.8 C919.47 60.64 915.04 59.87 909.95 59.87 C908.72 59.87 907.5 59.86 906.24 59.86 C904.88 59.86 903.52 59.86 902.16 59.87 C900.71 59.86 899.26 59.86 897.81 59.86 C893.81 59.85 889.8 59.85 885.8 59.85 C881.45 59.85 877.11 59.85 872.76 59.84 C864.13 59.83 855.49 59.83 846.86 59.83 C836.52 59.82 826.19 59.81 815.85 59.81 C790.86 59.78 765.88 59.77 740.89 59.77 C729.07 59.76 717.25 59.76 705.43 59.75 C664.96 59.73 624.5 59.72 584.04 59.71 C581.5 59.71 578.96 59.71 576.42 59.71 C575.16 59.71 573.9 59.71 572.6 59.71 C566.22 59.71 559.84 59.71 553.45 59.7 C551.55 59.7 551.55 59.7 549.61 59.7 C508.55 59.7 467.48 59.67 426.41 59.64 C383 59.61 339.58 59.59 296.17 59.58 C291.4 59.58 286.63 59.58 281.87 59.58 C280.69 59.58 279.52 59.58 278.31 59.58 C259.43 59.58 240.54 59.56 221.66 59.54 C202.67 59.52 183.69 59.52 164.7 59.53 C153.42 59.53 142.15 59.53 130.87 59.5 C123.33 59.49 115.79 59.49 108.25 59.5 C103.96 59.51 99.67 59.51 95.38 59.49 C69.06 57.79 69.06 57.79 45.44 66.08 C42.53 69.56 41.58 72.74 40.72 77.1 C40.55 77.89 40.39 78.68 40.22 79.49 C38.51 88.46 38.45 97.34 38.5 106.44 C38.49 108.34 38.49 110.24 38.48 112.15 C38.46 117.34 38.47 122.54 38.49 127.74 C38.5 133.4 38.48 139.07 38.47 144.73 C38.46 154.65 38.46 164.57 38.47 174.49 C38.48 185.13 38.48 195.77 38.47 206.4 C38.47 207.42 38.47 207.42 38.47 208.45 C38.47 211.19 38.47 213.93 38.47 216.67 C38.45 242.19 38.44 267.7 38.45 293.21 C38.46 294.34 38.46 294.34 38.46 295.5 C38.46 296.63 38.46 296.63 38.46 297.79 C38.47 320.85 38.47 343.9 38.46 366.96 C38.46 368.5 38.46 370.05 38.46 371.59 C38.46 377.8 38.46 384.01 38.46 390.22 C38.46 407.58 38.45 424.93 38.45 442.29 C38.45 443.48 38.45 443.48 38.45 444.69 C38.45 469.86 38.46 495.04 38.46 520.21 C38.46 521.03 38.46 521.84 38.47 522.68 C38.47 535.94 38.47 549.2 38.48 562.45 C38.5 615.03 38.5 667.6 38.48 720.17 C38.47 733.42 38.47 746.67 38.46 759.92 C38.46 760.74 38.46 761.55 38.46 762.4 C38.45 787.55 38.45 812.7 38.45 837.85 C38.45 838.64 38.45 839.43 38.45 840.24 C38.45 857.58 38.46 874.91 38.46 892.25 C38.46 898.45 38.46 904.66 38.46 910.86 C38.46 912.4 38.46 913.94 38.47 915.49 C38.47 938.54 38.47 961.59 38.46 984.64 C38.46 985.39 38.46 986.15 38.45 986.93 C38.45 987.68 38.45 988.43 38.45 989.21 C38.44 1014.65 38.45 1040.09 38.47 1065.53 C38.47 1068.26 38.47 1070.99 38.47 1073.73 C38.47 1074.4 38.48 1075.07 38.48 1075.76 C38.48 1087.01 38.48 1098.26 38.47 1109.51 C38.46 1119.31 38.46 1129.1 38.48 1138.9 C38.49 1144.48 38.49 1150.06 38.48 1155.64 C38.46 1160.72 38.47 1165.8 38.49 1170.89 C38.49 1172.71 38.49 1174.53 38.48 1176.35 C38.44 1185.24 38.81 1193.7 40.78 1202.39 C40.94 1203.09 41.09 1203.78 41.25 1204.5 C42.35 1208.83 43.87 1211.81 47 1215 C50.29 1216.42 50.29 1216.42 53.94 1217.25 C55.14 1217.56 56.35 1217.88 57.59 1218.2 C62.53 1219.36 66.96 1220.13 72.05 1220.13 C73.89 1220.13 73.89 1220.13 75.76 1220.14 C77.12 1220.14 78.48 1220.14 79.84 1220.13 C81.29 1220.14 82.74 1220.14 84.19 1220.14 C88.2 1220.15 92.2 1220.15 96.2 1220.15 C100.55 1220.15 104.9 1220.15 109.25 1220.16 C117.88 1220.17 126.52 1220.17 135.15 1220.17 C145.49 1220.18 155.83 1220.19 166.17 1220.19 C191.16 1220.22 216.15 1220.23 241.15 1220.23 C252.97 1220.24 264.79 1220.24 276.61 1220.25 C317.08 1220.27 357.54 1220.28 398.01 1220.29 C400.55 1220.29 403.09 1220.29 405.63 1220.29 C406.89 1220.29 408.15 1220.29 409.45 1220.29 C415.83 1220.29 422.22 1220.29 428.6 1220.3 C429.87 1220.3 431.14 1220.3 432.44 1220.3 C473.52 1220.3 514.59 1220.33 555.66 1220.36 C599.09 1220.39 642.51 1220.41 685.93 1220.42 C690.69 1220.42 695.46 1220.42 700.23 1220.42 C701.4 1220.42 702.57 1220.42 703.78 1220.42 C722.67 1220.42 741.56 1220.44 760.45 1220.46 C779.44 1220.48 798.42 1220.48 817.41 1220.47 C828.69 1220.47 839.97 1220.47 851.25 1220.5 C858.79 1220.51 866.33 1220.51 873.87 1220.5 C878.16 1220.49 882.45 1220.49 886.74 1220.51 C914.12 1222.2 914.12 1222.2 938 1212 C939.42 1208.71 939.42 1208.71 940.25 1205.06 C940.56 1203.86 940.88 1202.65 941.2 1201.41 C942.32 1196.62 943.13 1192.28 943.14 1187.34 C943.14 1186.22 943.15 1185.09 943.15 1183.92 C943.16 1182.7 943.16 1181.47 943.16 1180.2 C943.17 1178.2 943.17 1176.21 943.18 1174.21 C943.19 1172.06 943.19 1169.92 943.2 1167.77 C943.21 1163.29 943.23 1158.8 943.25 1154.31 C943.31 1141.55 943.37 1128.8 943.4 1116.04 C943.42 1108.99 943.45 1101.94 943.49 1094.89 C943.51 1091.17 943.53 1087.45 943.53 1083.73 C943.56 1038.55 943.56 1038.55 954.25 1027.19 C957.25 1024.44 960.47 1022.43 963.95 1020.37 C969.19 1016.87 973.39 1012.29 976.56 1006.88 C979.76 1001.45 983.49 997.91 989.44 995.75 C995.31 996.16 998.62 999.38 1002.48 1003.62 C1009.73 1013.61 1011.12 1029.33 1011.13 1041.29 C1011.13 1042.32 1011.13 1042.32 1011.13 1043.37 C1011.14 1045.65 1011.13 1047.93 1011.13 1050.21 C1011.13 1051.86 1011.13 1053.5 1011.13 1055.15 C1011.14 1059.6 1011.14 1064.06 1011.13 1068.51 C1011.13 1073.2 1011.13 1077.88 1011.14 1082.56 C1011.14 1090.44 1011.14 1098.32 1011.13 1106.19 C1011.12 1115.25 1011.13 1124.31 1011.13 1133.37 C1011.14 1141.18 1011.14 1148.99 1011.13 1156.8 C1011.13 1161.45 1011.13 1166.1 1011.14 1170.75 C1011.14 1175.14 1011.14 1179.52 1011.13 1183.91 C1011.13 1185.5 1011.13 1187.1 1011.13 1188.69 C1011.17 1218.57 1011.17 1218.57 1008.69 1232.69 C1008.58 1233.39 1008.48 1234.1 1008.37 1234.83 C1007.17 1241.96 1004.15 1248.85 999 1254 C997.41 1254.99 995.81 1255.94 994.19 1256.88 C989.11 1259.85 985.56 1262.23 982 1267 C981.67 1271.29 981.34 1275.58 981 1280 C657.27 1280 333.54 1280 0 1280 C-0.33 1275.38 -0.66 1270.76 -1 1266 C-2.92 1261.92 -2.92 1261.92 -7 1260 C-11.62 1259.67 -16.24 1259.34 -21 1259 C-21 850.46 -21 441.92 -21 21 C-16.38 20.67 -11.76 20.34 -7 20 C-2.92 18.08 -2.92 18.08 -1 14 C-0.67 9.38 -0.34 4.76 0 0 Z " fill="#000000" transform="translate(21,0)"/>
<path d="M0 0 C1.12 -0.03 2.23 -0.06 3.38 -0.09 C11.72 -0.11 18.64 1.46 24.94 7.21 C28.15 10.64 30.2 14.4 32.01 18.7 C34.29 22.6 37.75 23.86 41.88 25.19 C48.55 27.8 52.35 31.92 55.43 38.36 C56.23 40.25 57 42.16 57.73 44.08 C60.07 48.33 64.24 49.66 68.56 51.44 C75.9 54.69 78.88 58.32 82.06 65.5 C84.87 71.71 87.28 73.77 93.44 76.38 C101.02 79.69 104.89 83.87 108.06 91.5 C108.41 92.43 108.76 93.36 109.12 94.31 C110.51 97.54 112.1 99.08 115.33 100.49 C116.17 100.78 117.01 101.07 117.88 101.38 C126.95 104.91 130.14 109.98 134.06 118.5 C136.78 123.33 138.57 125.45 143.81 127.31 C150.98 130.13 154.95 133.42 158.2 140.51 C158.48 141.17 158.77 141.82 159.06 142.5 C161.87 148.71 164.28 150.77 170.44 153.38 C178.02 156.69 181.89 160.87 185.06 168.5 C185.41 169.43 185.76 170.36 186.12 171.31 C187.5 174.52 189.07 176.08 192.3 177.46 C193.13 177.74 193.96 178.02 194.81 178.31 C203.04 181.54 206.62 185.04 210.25 193.19 C210.7 194.31 211.14 195.42 211.61 196.57 C213.54 200.45 215.4 201.87 219.39 203.39 C220.21 203.65 221.03 203.92 221.88 204.19 C228.41 206.74 232.35 210.77 235.27 217.14 C235.94 218.84 236.56 220.56 237.14 222.3 C238.64 225.88 240.2 227.14 243.77 228.64 C244.79 229.01 245.82 229.37 246.88 229.75 C255.16 233.12 258.15 237.2 261.69 245.25 C262.23 246.63 262.23 246.63 262.79 248.05 C264.96 252.22 268.13 253.66 272.38 255.31 C279.87 258.62 283.69 261.98 286.81 269.69 C287.18 270.71 287.54 271.74 287.92 272.79 C288.99 275.81 288.99 275.81 292.06 278.5 C296.35 278.83 300.64 279.16 305.06 279.5 C305.06 301.94 305.06 324.38 305.06 347.5 C300.77 347.83 296.48 348.16 292.06 348.5 C288.27 353.22 288.27 353.22 286.31 358.38 C283.81 364.9 279.76 368.8 273.43 371.71 C271.72 372.37 270 373 268.26 373.58 C264.68 375.08 263.43 376.64 261.92 380.21 C261.56 381.23 261.19 382.26 260.81 383.31 C257.44 391.59 253.36 394.59 245.31 398.12 C243.93 398.67 243.93 398.67 242.52 399.23 C238.33 401.4 236.87 404.62 235.19 408.88 C231.85 416.51 227.66 420.22 220.06 423.5 C214.25 426.02 212.57 428.18 209.98 433.87 C205.62 443.17 200.89 446.44 191.55 450.29 C186.7 452.65 185.6 455.32 183.81 460.31 C181.54 465.91 179.36 469.48 174.06 472.5 C171.5 473.58 168.9 474.55 166.29 475.52 C161.53 477.61 160.06 481.42 158.12 485.94 C154.87 493.51 150.65 497.34 143.06 500.5 C142.13 500.85 141.21 501.2 140.25 501.56 C137.02 502.95 135.48 504.54 134.07 507.77 C133.78 508.61 133.49 509.45 133.19 510.31 C129.65 519.39 124.58 522.58 116.06 526.5 C111.23 529.22 109.12 531.01 107.25 536.25 C104.43 543.42 101.14 547.39 94.05 550.64 C93.07 551.06 93.07 551.06 92.06 551.5 C85.83 554.32 83.78 556.76 81.12 562.94 C77.91 570.27 74.3 573.41 67.06 576.5 C66.09 576.87 66.09 576.87 65.09 577.24 C60.67 578.91 59.06 580.24 57.06 584.5 C56.55 585.66 56.55 585.66 56.02 586.84 C51.62 596.3 46.96 599.93 37.29 603.52 C33.52 605.18 31.89 607.68 30.23 611.35 C27.3 617.84 23.14 622.88 16.37 625.57 C10.93 627.1 5.42 626.87 -0.2 626.87 C-2.3 626.87 -4.4 626.91 -6.51 626.95 C-13.98 627.01 -19.63 626.75 -25.94 622.5 C-33.96 614.48 -34.52 606.61 -34.88 595.75 C-34.94 594.54 -35.01 593.33 -35.08 592.08 C-35.45 582.08 -33.9 572.64 -26.91 565.03 C-24.39 563.08 -21.74 562.01 -18.81 560.75 C-14.37 558.74 -14.37 558.74 -11.52 554.96 C-10.92 553.07 -10.36 551.17 -9.84 549.25 C-8.09 543.9 -4.52 539.98 0.34 537.19 C3.4 535.8 6.45 534.67 9.68 533.75 C12.97 532.02 13.31 530.27 14.5 526.81 C17.63 518.7 21.13 513.98 29.05 510.3 C31.06 509.5 31.06 509.5 34.75 508.5 C39.35 505.72 40 502.41 41.85 497.51 C43.56 493.26 45.31 490.2 49.06 487.5 C51.4 486.56 53.76 485.67 56.12 484.81 C61.34 482.81 61.34 482.81 64.87 478.7 C65.66 476.62 66.4 474.52 67.08 472.41 C69.25 465.99 73.23 462.72 79.12 459.69 C81.65 458.52 84.01 457.52 86.7 456.78 C90.19 454.89 90.58 452.5 91.88 448.81 C94.37 442.42 97.01 437.99 103.06 434.5 C105.14 433.72 107.22 432.98 109.31 432.25 C113.71 430.62 113.71 430.62 116.47 427.03 C117.08 425.13 117.64 423.21 118.16 421.29 C119.9 415.91 123.47 411.99 128.34 409.19 C131.4 407.8 134.45 406.67 137.68 405.75 C140.97 404.02 141.31 402.27 142.5 398.81 C145.63 390.7 149.13 385.98 157.05 382.3 C159.06 381.5 159.06 381.5 162.75 380.5 C167.35 377.72 168 374.41 169.85 369.51 C172.55 362.8 175.78 359.88 182.43 356.99 C184.31 356.21 186.21 355.49 188.11 354.76 C191.17 353.83 191.17 353.83 192.06 351.5 C187.05 349.59 182.33 348.88 177.03 348.39 C176.12 348.31 175.21 348.22 174.27 348.14 C162.08 347.12 149.87 347.21 137.65 347.23 C133.99 347.24 130.34 347.23 126.68 347.22 C120.3 347.21 113.91 347.21 107.53 347.21 C98.03 347.21 88.54 347.21 79.04 347.2 C63.06 347.18 47.08 347.17 31.1 347.16 C9.29 347.16 -12.53 347.14 -34.35 347.12 C-44.53 347.11 -54.7 347.1 -64.88 347.09 C-65.9 347.09 -66.92 347.09 -67.97 347.09 C-92.18 347.06 -116.39 347.05 -140.6 347.03 C-142.19 347.03 -142.19 347.03 -143.81 347.03 C-160.99 347.02 -178.17 347.01 -195.35 347 C-211.47 346.99 -227.59 346.98 -243.71 346.97 C-244.77 346.97 -245.83 346.97 -246.92 346.97 C-271.11 346.95 -295.31 346.93 -319.5 346.91 C-320.52 346.91 -321.53 346.91 -322.58 346.91 C-332.73 346.9 -342.88 346.89 -353.02 346.88 C-374.82 346.86 -396.62 346.84 -418.41 346.83 C-434.29 346.83 -450.17 346.82 -466.05 346.8 C-475.49 346.79 -484.92 346.79 -494.35 346.79 C-500.65 346.79 -506.95 346.79 -513.25 346.77 C-516.84 346.77 -520.43 346.76 -524.02 346.77 C-527.89 346.78 -531.76 346.77 -535.63 346.76 C-536.74 346.76 -537.85 346.76 -539 346.77 C-548.79 346.72 -558.99 346.24 -566.41 339.08 C-572.55 332.13 -572.31 325.17 -572.31 316.37 C-572.31 314.27 -572.35 312.17 -572.39 310.07 C-572.46 301.66 -572.18 294.04 -566.2 287.64 C-557.79 279.83 -547.83 280.35 -536.98 280.37 C-535.78 280.36 -534.57 280.36 -533.33 280.36 C-529.97 280.35 -526.62 280.35 -523.27 280.36 C-519.62 280.36 -515.97 280.35 -512.32 280.34 C-505.93 280.34 -499.53 280.33 -493.14 280.33 C-483.63 280.33 -474.12 280.32 -464.61 280.31 C-448.61 280.29 -432.61 280.28 -416.61 280.27 C-393.74 280.26 -370.86 280.23 -347.99 280.21 C-338.81 280.2 -329.63 280.19 -320.45 280.18 C-318.92 280.18 -318.92 280.18 -317.36 280.18 C-293.08 280.15 -268.79 280.13 -244.51 280.11 C-243.45 280.11 -242.38 280.11 -241.29 280.1 C-216.51 280.08 -191.73 280.06 -166.95 280.04 C-165.89 280.04 -164.82 280.04 -163.73 280.04 C-158.36 280.04 -152.99 280.03 -147.62 280.03 C-146.56 280.03 -145.5 280.03 -144.4 280.03 C-142.26 280.02 -140.12 280.02 -137.98 280.02 C-102.56 279.99 -67.15 279.96 -31.73 279.92 C-26.73 279.91 -21.72 279.91 -16.72 279.9 C-15.73 279.9 -14.75 279.9 -13.73 279.9 C2.1 279.88 17.93 279.87 33.76 279.86 C49.69 279.86 65.62 279.84 81.54 279.82 C90.99 279.81 100.44 279.8 109.9 279.8 C116.22 279.8 122.55 279.8 128.88 279.78 C132.47 279.78 136.07 279.77 139.66 279.78 C152.15 279.79 164.59 279.76 177.04 278.61 C177.87 278.53 178.71 278.45 179.58 278.37 C183.98 277.9 187.89 277.09 192.06 275.5 C189.55 272.49 186.97 271.6 183.31 270.31 C177.25 267.84 173.44 265.15 170.06 259.5 C169.28 257.43 168.53 255.34 167.81 253.25 C166.18 248.85 166.18 248.85 162.59 246.09 C160.69 245.49 158.78 244.92 156.85 244.4 C151.47 242.67 147.55 239.09 144.75 234.22 C143.36 231.16 142.24 228.11 141.32 224.88 C139.59 221.6 137.84 221.25 134.38 220.06 C126.27 216.94 121.55 213.43 117.86 205.52 C117.06 203.5 117.06 203.5 116.06 199.81 C113.29 195.21 109.97 194.56 105.07 192.71 C100.83 191 97.76 189.25 95.06 185.5 C94.12 183.16 93.23 180.81 92.38 178.44 C90.38 173.23 90.38 173.23 86.27 169.69 C84.19 168.9 82.09 168.16 79.97 167.48 C73.55 165.32 70.28 161.34 67.25 155.44 C66.08 152.91 65.08 150.56 64.34 147.87 C62.45 144.37 60.06 143.98 56.38 142.69 C49.98 140.19 45.55 137.55 42.06 131.5 C41.29 129.43 40.54 127.34 39.81 125.25 C38.18 120.85 38.18 120.85 34.59 118.09 C32.69 117.49 30.78 116.92 28.85 116.4 C23.47 114.67 19.55 111.09 16.75 106.22 C15.36 103.16 14.24 100.11 13.32 96.88 C11.59 93.6 9.84 93.25 6.38 92.06 C-1.73 88.94 -6.46 85.43 -10.14 77.51 C-10.94 75.5 -10.94 75.5 -11.94 71.88 C-14.69 67.23 -18.17 66.28 -22.98 64.1 C-28.21 61.27 -30.74 57.24 -33.07 51.91 C-34.27 47.2 -34.24 42.72 -34.19 37.88 C-34.18 36.9 -34.17 35.92 -34.17 34.91 C-34 23.4 -33.74 14.3 -25.25 5.81 C-17.84 0.08 -9 -0.02 0 0 Z " fill="#000000" transform="translate(974.9375,326.5)"/>
</svg>
