<svg width="583" height="144" viewBox="0 0 583 144" fill="none" xmlns="http://www.w3.org/2000/svg">
<path d="M100.495 36.4163C98.9921 31.5094 95.9988 27.1922 91.9305 24.0644C91.6532 23.3166 91.2085 22.6421 90.6305 22.0926C90.0524 21.5431 89.3564 21.1332 88.5955 20.894C85.8575 19.4324 82.9136 19.5147 80.3609 17.6619C80.2504 17.2976 80.2208 16.9136 80.2741 16.5367C80.3274 16.1598 80.4624 15.7991 80.6697 15.4798C78.1787 16.6738 76.6759 15.8091 77.4788 14.6357L78.2198 13.9769C78.7963 9.96256 80.4844 10.0655 79.208 7.34806C79.7303 6.37701 79.8907 5.25202 79.6608 4.17368C79.4308 3.09534 78.8253 2.13373 77.9523 1.46029C76.9774 0.635873 75.771 0.133823 74.4991 0.0232233C73.2272 -0.087376 71.9524 0.198905 70.8499 0.842685C66.7326 3.39542 66.0738 5.33056 67.062 8.5009C67.4236 9.80834 67.6715 11.1446 67.803 12.4947L68.9559 13.277C69.329 13.7202 69.6044 14.2372 69.7641 14.7942C69.9237 15.3511 69.964 15.9355 69.8823 16.5091C65.2297 14.6357 65.765 17.3325 63.1917 17.7854C62.1623 17.7854 58.2921 18.4236 56.0481 18.8148C54.8954 19.0441 53.8066 19.5218 52.8572 20.2147C52.3426 20.6882 52.6719 20.3794 52.8572 20.2147C52.3837 20.647 41.3905 30.6727 39.9082 31.9902C33.5273 37.2017 26.0549 40.9097 18.0453 42.8393C3.63468 46.8331 -3.36476 57.7028 1.57602 66.8433C1.57602 66.8433 2.19361 52.4327 22.9243 61.4908C28.915 64.1259 31.303 66.4316 40.9787 64.4552C49.2134 62.3966 51.9926 66.8433 54.5041 69.849C51.9102 73.9663 52.672 90.9296 52.0955 92.4942C51.7512 93.9288 51.6468 95.4104 51.7867 96.8791C49.728 100.852 51.4985 105.34 50.8809 109.499H50.778C50.2427 110.178 50.0368 110.363 50.428 111.701C50.8373 116.503 50.7269 121.334 50.0986 126.112C51.7145 126.264 53.3444 126.096 54.8953 125.618C54.463 122.304 57.9421 111.207 57.8597 110.59C57.4686 108.408 60.4125 104.764 61.3595 100.297C61.7712 93.2147 67.206 89.2827 69.4088 77.2395C69.5529 76.5602 69.9029 74.4192 70.2323 72.8134C70.5762 72.9596 70.9534 73.0094 71.3234 72.9575C72.6409 80.2863 78.0964 89.2827 80.505 94.5734C83.0577 100.194 79.2492 101.614 82.7901 109.519C84.2723 112.813 87.5868 126.483 87.5868 126.483C89.0073 125.392 92.4864 127.059 92.4864 127.059C92.3629 125.762 91.4159 100.791 91.2923 98.6496C91.4152 97.1952 91.0376 95.7426 90.2219 94.5323C90.2219 94.5323 91.4571 90.9296 89.7278 89.3033C89.5631 87.8622 87.8132 63.4465 85.1987 57.8058C84.8606 56.8809 84.7532 55.8874 84.8859 54.9116C85.0187 53.9358 85.3875 53.0072 85.9604 52.2062C88.9867 51.3416 88.5955 47.5742 92.1364 47.9242C98.827 44.898 102.738 40.2866 100.495 36.4781V36.4163ZM88.6573 44.4039C88.3073 44.7539 87.4015 46.0302 87.6074 45.3509C88.6817 41.8629 88.8657 38.1615 88.1426 34.5841C89.315 36.3021 90.8822 37.714 92.7128 38.7014C90.7777 40.2248 90.3042 42.8187 88.5955 44.3216L88.6573 44.4039Z" fill="#2957A4"/>
<path d="M70.1491 130.989C86.6084 130.971 102.961 133.626 118.569 138.853C103.347 128.529 85.3717 123.021 66.9787 123.043C45.6326 123.012 24.9433 130.423 8.47168 144C27.92 135.386 48.9609 130.953 70.2315 130.989" fill="#F59630"/>
<path d="M135.006 36.4154C134.979 35.9785 135.04 35.5405 135.185 35.1284C135.33 34.7163 135.557 34.3387 135.851 34.0189C136.145 33.699 136.5 33.4437 136.895 33.2685C137.289 33.0932 137.715 33.0019 138.145 33H149.821C166.295 33 176.052 42.3923 176.052 57.9851C176.052 73.5779 166.055 83.1734 149.361 83.1734H138.285C137.853 83.1845 137.424 83.1065 137.022 82.9441C136.621 82.7818 136.256 82.5385 135.95 82.2288C135.643 81.9191 135.402 81.5496 135.24 81.1424C135.077 80.7352 134.998 80.2989 135.006 79.8597V36.4154ZM170.094 57.9851C170.094 45.3604 162.557 37.9807 149.661 37.9807H140.744V78.091H149.581C162.617 78.091 170.114 70.7927 170.114 57.9851" fill="#2957A4"/>
<path d="M194.298 58.2052C194.298 43.4203 204.545 33 219.479 33C234.412 33 244.472 43.2826 244.472 58.0479C244.472 72.8132 234.287 83.1745 219.354 83.1745C204.42 83.1745 194.36 72.9902 194.36 58.2052M238.37 58.2052C238.37 46.2711 230.663 37.9545 219.375 37.9545C208.086 37.9545 200.484 46.1138 200.484 58.2052C200.484 70.2966 208.253 78.3772 219.479 78.3772C230.705 78.3772 238.37 70.1983 238.37 58.2052Z" fill="#2957A4"/>
<path d="M287.043 33.0197C292.512 32.8004 297.866 34.5968 302.039 38.0515C303.809 39.3343 305.001 41.2365 305.364 43.3584C305.343 43.8026 305.233 44.2383 305.039 44.6408C304.846 45.0433 304.573 45.4046 304.236 45.704C303.899 46.0035 303.505 46.2351 303.076 46.3858C302.647 46.5364 302.192 46.6031 301.736 46.5819C300.363 43.9321 298.249 41.7154 295.638 40.1884C293.027 38.6614 290.027 37.8865 286.983 37.9532C276.14 37.9532 268.683 46.1299 268.683 58.1393C268.683 70.1488 276.22 78.2272 287.144 78.2272C295.065 78.2272 300.366 73.8834 302.2 68.5567C302.341 68.3209 306.049 68.8515 306.049 71.7016C305.646 74.1849 304.301 76.4299 302.28 77.9913C297.987 81.5116 292.508 83.3536 286.902 83.1607C272.371 83.1607 262.717 72.8809 262.717 58.1983C262.717 43.5157 272.552 33 287.084 33" fill="#2957A4"/>
<path d="M324.295 73.5255C324.368 72.7888 324.664 72.0923 325.144 71.53C325.624 70.9677 326.265 70.5667 326.979 70.3812C328.411 72.9412 330.522 75.0531 333.078 76.4823C335.634 77.9116 338.535 78.6023 341.459 78.4777C348.571 78.4777 352.979 75.1762 352.979 69.6541C352.979 63.4246 347.004 61.931 340.205 60.2803C332.798 58.3151 325.49 55.9176 325.49 46.5241C325.49 38.6635 332.348 33.0235 341.772 33.0235C346.611 32.7879 351.37 34.3322 355.154 37.3665C356.448 38.4416 357.276 39.9767 357.466 41.6505C357.404 42.4115 357.103 43.1331 356.607 43.7121C356.111 44.291 355.444 44.6975 354.704 44.8734C353.389 42.6264 351.493 40.7774 349.217 39.5217C346.941 38.2661 344.368 37.6504 341.772 37.7399C335.346 37.7399 330.937 41.12 330.937 46.367C330.937 52.2624 336.012 53.4809 342.967 55.2102C350.805 57.1754 358.505 60.0052 358.505 69.3004C358.505 77.7703 351.863 83.1745 341.557 83.1745C334.444 83.1745 329.37 80.8556 326.607 78.0847C325.292 76.9025 324.467 75.2686 324.295 73.5059" fill="#2957A4"/>
<path d="M376.749 80.5412V35.6177C376.749 33.8457 377.571 33 379.136 33H379.9C381.543 33 382.365 33.8457 382.365 35.6177V55.4316H409.899V35.6177C409.899 33.8457 410.643 33 412.208 33H413.03C414.674 33 415.496 33.8457 415.496 35.6177V80.5412C415.546 80.8899 415.518 81.2459 415.413 81.5815C415.308 81.9172 415.13 82.2234 414.891 82.4766C414.653 82.7297 414.361 82.923 414.038 83.0413C413.715 83.1596 413.371 83.1999 413.03 83.1589H412.208C410.643 83.1589 409.899 82.2528 409.899 80.5412V60.5864H382.365V80.5412C382.416 80.8899 382.387 81.2459 382.283 81.5815C382.178 81.9172 381.999 82.2234 381.761 82.4766C381.522 82.7297 381.23 82.923 380.908 83.0413C380.585 83.1596 380.24 83.1999 379.9 83.1589H379.136C377.571 83.1589 376.749 82.2528 376.749 80.5412Z" fill="#F59630"/>
<path d="M433.781 79.8746V36.4184C433.742 35.9802 433.793 35.5384 433.93 35.122C434.068 34.7055 434.288 34.3236 434.578 34.0012C434.867 33.6787 435.219 33.423 435.61 33.2505C436.001 33.0781 436.423 32.9929 436.849 33.0005H464.752C466.483 33.0005 467.388 33.855 467.388 35.4011V35.7877C467.388 37.4152 466.483 38.1884 464.752 38.1884H439.405V54.9524H458.833C460.643 54.9524 461.547 55.8069 461.547 57.2717V57.5768C461.547 59.2044 460.643 59.9775 458.833 59.9775H439.405V77.9825H465.362C467.093 77.9825 467.977 78.7556 467.977 80.3018V80.6884C467.977 82.316 467.093 83.1704 465.362 83.1704H436.849C436.428 83.1929 436.008 83.1213 435.617 82.9606C435.225 82.7999 434.872 82.5537 434.581 82.239C434.29 81.9243 434.068 81.5484 433.929 81.1369C433.791 80.7254 433.741 80.2879 433.781 79.8543" fill="#F59630"/>
<path d="M537.188 58.1953C537.188 43.4161 546.545 33 560.18 33C573.815 33 583 43.2786 583 58.0381C583 72.7976 573.663 83.1745 560.028 83.1745C546.393 83.1745 537.207 72.9745 537.207 58.215M577.39 58.215C577.39 46.3052 570.354 37.9722 560.066 37.9722C549.778 37.9722 542.798 46.148 542.798 58.215C542.798 70.282 549.911 78.3791 560.142 78.3791C570.373 78.3791 577.409 70.2034 577.409 58.215" fill="#F59630"/>
<path d="M489.208 83.1745C488.508 83.1745 487.837 82.8977 487.34 82.4044C486.844 81.9111 486.562 81.2412 486.557 80.541V60.4831C486.562 59.6129 486.91 58.7799 487.525 58.1646C488.139 57.5494 488.972 57.2014 489.841 57.1962H504.204C506.709 57.1962 509.111 56.2018 510.884 54.4311C512.657 52.6604 513.656 50.2581 513.661 47.7514C513.656 45.2428 512.658 42.8385 510.885 41.0646C509.113 39.2908 506.711 38.292 504.204 38.2867H488.872C488.174 38.2816 487.505 38.0032 487.01 37.5109C486.514 37.0187 486.231 36.3519 486.221 35.6533C486.221 34.9496 486.5 34.2747 486.997 33.7771C487.494 33.2795 488.169 33 488.872 33H504.204C508.115 33.0052 511.864 34.5638 514.627 37.3334C517.391 40.1029 518.943 43.857 518.943 47.7712C518.938 51.6819 517.383 55.4309 514.62 58.1962C511.858 60.9615 508.112 62.5173 504.204 62.5226H491.859V80.541C491.854 81.2412 491.572 81.9111 491.076 82.4044C490.579 82.8977 489.908 83.1745 489.208 83.1745Z" fill="#F59630"/>
<path d="M516.196 83.1757C515.813 83.168 515.436 83.0818 515.091 82.9227C514.746 82.7636 514.44 82.5353 514.194 82.2533L497.762 63.4023C497.533 63.1437 497.36 62.8438 497.253 62.5203C497.146 62.1967 497.107 61.856 497.139 61.5179C497.17 61.1798 497.272 60.8511 497.437 60.5511C497.603 60.251 497.829 59.9857 498.102 59.7704C498.647 59.3372 499.349 59.1285 500.054 59.1897C500.758 59.2509 501.41 59.577 501.865 60.0971L518.317 78.9289C518.544 79.1887 518.715 79.4887 518.82 79.812C518.926 80.1352 518.964 80.4753 518.932 80.8126C518.901 81.15 518.8 81.4781 518.636 81.7781C518.472 82.078 518.248 82.344 517.977 82.5608C517.494 82.9469 516.885 83.1578 516.256 83.1565" fill="#F59630"/>
<path d="M206.66 105.317L204.786 110.554C204.735 110.806 204.6 111.032 204.406 111.194C204.211 111.356 203.968 111.444 203.718 111.442C203.156 111.442 202.613 111.017 202.669 110.882L209.209 93.4908C209.415 93.0078 209.733 92.7759 210.614 92.7759C211.495 92.7759 211.832 93.0078 212.038 93.4908L218.578 110.882C218.578 111.017 218.072 111.442 217.491 111.442C217.234 111.446 216.983 111.361 216.779 111.199C216.575 111.038 216.43 110.81 216.367 110.554L214.493 105.317H206.66ZM213.725 103.616L210.521 94.9208L207.297 103.616H213.725Z" fill="#F59630"/>
<path d="M232.578 110.476V94.0048C232.578 93.7139 232.689 93.4349 232.885 93.2292C233.082 93.0235 233.349 92.908 233.628 92.908H237.919C244.084 92.908 247.7 96.3355 247.7 102.192C247.7 108.048 243.952 111.573 237.769 111.573H233.684C233.541 111.581 233.399 111.559 233.265 111.507C233.131 111.456 233.009 111.376 232.905 111.273C232.802 111.171 232.719 111.047 232.663 110.91C232.607 110.773 232.578 110.625 232.578 110.476ZM237.825 109.85C242.866 109.85 245.695 107.068 245.695 102.25C245.695 97.4322 242.772 94.6315 237.862 94.6315H234.452V109.85H237.825Z" fill="#F59630"/>
<path d="M261.699 110.501V93.9553C261.706 93.7807 261.747 93.6093 261.821 93.4519C261.895 93.2945 261.999 93.1544 262.127 93.0402C262.255 92.926 262.405 92.8402 262.567 92.7882C262.728 92.7361 262.899 92.7189 263.067 92.7376H263.498C264.473 92.7376 264.716 93.1821 265.128 94.1872L269.832 104.934L274.554 94.1872C274.966 93.1821 275.21 92.7376 276.184 92.7376H276.578C276.745 92.7188 276.915 92.7361 277.075 92.7883C277.236 92.8406 277.384 92.9266 277.511 93.0411C277.638 93.1555 277.74 93.2959 277.812 93.4532C277.884 93.6106 277.923 93.7815 277.927 93.9553V110.501C277.927 111.1 277.665 111.39 277.121 111.39H276.896C276.372 111.39 276.128 111.1 276.128 110.501V95.0377L271.425 105.552C271.327 105.916 271.113 106.235 270.816 106.456C270.52 106.677 270.16 106.788 269.794 106.77C269.429 106.788 269.068 106.677 268.772 106.456C268.476 106.235 268.261 105.916 268.164 105.552L263.498 95.0377V110.501C263.498 111.1 263.292 111.39 262.73 111.39H262.449C261.924 111.448 261.699 111.158 261.699 110.501Z" fill="#F59630"/>
<path d="M291.935 110.501V93.6076C291.921 93.4932 291.931 93.377 291.966 93.2673C292.001 93.1577 292.059 93.0576 292.136 92.9742C292.214 92.8908 292.308 92.8262 292.413 92.7853C292.517 92.7445 292.629 92.7282 292.741 92.7378H292.984C293.098 92.721 293.214 92.7321 293.323 92.7702C293.432 92.8083 293.53 92.8723 293.61 92.957C293.691 93.0417 293.751 93.1448 293.785 93.2578C293.819 93.3709 293.828 93.4907 293.809 93.6076V110.501C293.809 111.1 293.546 111.39 292.984 111.39H292.741C292.216 111.448 291.935 111.158 291.935 110.501Z" fill="#F59630"/>
<path d="M307.817 110.507V94.0522C307.817 93.3367 308.173 92.7373 308.829 92.7373H309.316C309.991 92.7373 310.31 93.1047 310.741 93.7621L320.447 108.264V93.6074C320.447 93.0273 320.653 92.7373 321.215 92.7373H321.459C321.984 92.7373 322.209 93.0273 322.209 93.6074V110.082C322.209 110.855 321.853 111.397 321.234 111.397H321.103C320.41 111.397 320.241 111.165 319.885 110.662L309.579 95.193V110.507C309.579 111.107 309.354 111.397 308.811 111.397H308.567C308.098 111.455 307.817 111.165 307.817 110.507Z" fill="#F59630"/>
<path d="M361.417 110.619C361.428 110.736 361.414 110.854 361.377 110.965C361.34 111.077 361.281 111.178 361.202 111.263C361.124 111.348 361.029 111.415 360.924 111.458C360.818 111.501 360.705 111.521 360.592 111.514H360.349C359.824 111.514 359.543 111.222 359.543 110.619V93.9388C359.543 93.6498 359.654 93.3725 359.85 93.1681C360.047 92.9637 360.314 92.8489 360.592 92.8489H365.183C369.343 92.8489 371.761 94.7952 371.761 98.4738C371.761 102.152 369.437 104.177 364.958 104.177H361.417V110.619ZM365.165 102.444C368.275 102.444 369.849 101.082 369.849 98.5517C369.849 96.0215 368.275 94.659 365.24 94.659H361.492V102.444H365.165Z" fill="#F59630"/>
<path d="M385.783 101.899C385.696 100.682 385.864 99.4608 386.276 98.3129C386.688 97.1651 387.334 96.116 388.173 95.2326C389.013 94.3492 390.027 93.6511 391.151 93.1827C392.276 92.7144 393.485 92.4862 394.702 92.5128C395.909 92.4782 397.11 92.6975 398.228 93.1566C399.345 93.6157 400.354 94.3044 401.189 95.1782C402.024 96.052 402.667 97.0915 403.077 98.2297C403.486 99.3679 403.653 100.579 403.566 101.786C403.658 103.004 403.494 104.228 403.084 105.378C402.675 106.528 402.029 107.58 401.188 108.465C400.347 109.349 399.331 110.047 398.204 110.514C397.077 110.98 395.865 111.204 394.646 111.172C393.438 111.209 392.236 110.992 391.117 110.534C389.998 110.076 388.988 109.387 388.153 108.513C387.317 107.638 386.674 106.598 386.266 105.458C385.857 104.319 385.693 103.106 385.783 101.899ZM401.636 101.899C401.715 100.926 401.594 99.9473 401.281 99.0235C400.967 98.0997 400.466 97.2504 399.811 96.5285C399.155 95.8067 398.358 95.2277 397.47 94.8275C396.581 94.4273 395.62 94.2144 394.646 94.2023C393.678 94.2088 392.721 94.4165 391.837 94.812C390.952 95.2075 390.159 95.7823 389.508 96.5001C388.856 97.218 388.361 98.0633 388.052 98.9828C387.743 99.9023 387.627 100.876 387.713 101.842C387.633 102.813 387.754 103.79 388.068 104.712C388.382 105.634 388.883 106.481 389.539 107.199C390.195 107.918 390.993 108.494 391.881 108.89C392.769 109.286 393.73 109.494 394.702 109.501C395.668 109.497 396.623 109.292 397.506 108.9C398.388 108.508 399.181 107.936 399.832 107.222C400.484 106.508 400.98 105.666 401.291 104.75C401.601 103.833 401.718 102.863 401.636 101.899Z" fill="#F59630"/>
<path d="M445.126 94.6848C444.563 94.6848 444.264 94.3919 444.264 93.8842V93.7281C444.264 93.1813 444.563 92.908 445.126 92.908H458.243C458.805 92.908 459.105 93.1813 459.105 93.7281V93.8842C459.105 94.3919 458.805 94.6848 458.243 94.6848H452.621V110.676C452.621 111.282 452.34 111.575 451.797 111.575H451.553C451.01 111.575 450.747 111.282 450.747 110.676V94.6262L445.126 94.6848Z" fill="#F59630"/>
<path d="M477.116 105.317L475.243 110.553C475.187 110.807 475.049 111.034 474.851 111.195C474.653 111.357 474.408 111.444 474.156 111.442C473.612 111.442 473.069 111.017 473.106 110.882L479.665 93.4908C479.852 93.0077 480.19 92.7759 481.07 92.7759C481.951 92.7759 482.288 93.0077 482.476 93.4908L489.015 110.882C489.015 111.017 488.528 111.442 487.947 111.442C487.689 111.449 487.437 111.365 487.232 111.203C487.028 111.041 486.883 110.812 486.823 110.553L484.949 105.317H477.116ZM484.2 103.616L480.995 94.9208L477.753 103.616H484.2Z" fill="#F59630"/>
<path d="M503.025 110.359V93.6705C503.007 93.5547 503.015 93.4361 503.05 93.324C503.084 93.212 503.145 93.1095 503.226 93.0247C503.307 92.9398 503.406 92.875 503.517 92.8352C503.627 92.7954 503.745 92.7817 503.862 92.7953H504.115C504.233 92.7784 504.353 92.7895 504.466 92.8278C504.579 92.8662 504.681 92.9306 504.765 93.0158C504.848 93.1011 504.91 93.2048 504.946 93.3186C504.982 93.4323 504.99 93.5529 504.971 93.6705V109.639H513.918C514.034 109.621 514.154 109.63 514.266 109.665C514.379 109.699 514.482 109.759 514.569 109.84C514.655 109.92 514.722 110.02 514.764 110.13C514.806 110.24 514.823 110.358 514.812 110.476V110.631C514.816 110.746 514.795 110.861 514.75 110.967C514.705 111.073 514.638 111.168 514.553 111.246C514.468 111.323 514.367 111.382 514.258 111.417C514.148 111.452 514.032 111.462 513.918 111.448H504.193C504.043 111.459 503.893 111.439 503.752 111.389C503.61 111.339 503.481 111.26 503.371 111.158C503.262 111.056 503.175 110.932 503.115 110.795C503.056 110.657 503.025 110.509 503.025 110.359Z" fill="#F59630"/>
<path d="M418.715 111.349C418.586 111.351 418.457 111.328 418.336 111.28C418.216 111.232 418.106 111.161 418.014 111.07C417.922 110.979 417.848 110.871 417.798 110.752C417.748 110.632 417.722 110.504 417.722 110.374V102.879C417.722 102.556 417.85 102.246 418.079 102.018C418.307 101.789 418.617 101.661 418.94 101.661H424.206C424.666 101.661 425.121 101.57 425.547 101.394C425.972 101.218 426.358 100.96 426.683 100.635C427.009 100.309 427.267 99.9228 427.443 99.4977C427.619 99.0726 427.71 98.6169 427.71 98.1567C427.71 97.2274 427.34 96.3361 426.683 95.6789C426.026 95.0218 425.135 94.6526 424.206 94.6526H418.584C418.321 94.6526 418.068 94.548 417.882 94.3617C417.695 94.1755 417.591 93.9229 417.591 93.6595C417.596 93.3993 417.703 93.1515 417.888 92.9693C418.074 92.7871 418.324 92.685 418.584 92.6851H424.206C425.657 92.6851 427.048 93.2615 428.075 94.2877C429.101 95.3138 429.677 96.7056 429.677 98.1567C429.677 99.6079 429.101 101 428.075 102.026C427.048 103.052 425.657 103.628 424.206 103.628H419.633V110.299C419.633 110.56 419.531 110.809 419.349 110.995C419.167 111.181 418.919 111.288 418.659 111.292" fill="#F59630"/>
<path d="M429.271 111.195C429.127 111.193 428.986 111.16 428.857 111.099C428.727 111.037 428.613 110.949 428.521 110.839L422.487 103.643C422.403 103.544 422.34 103.429 422.301 103.305C422.263 103.182 422.249 103.051 422.261 102.922C422.273 102.793 422.311 102.668 422.373 102.553C422.434 102.439 422.517 102.338 422.618 102.256C422.716 102.172 422.83 102.107 422.953 102.067C423.076 102.026 423.206 102.011 423.335 102.021C423.464 102.032 423.59 102.068 423.705 102.128C423.82 102.187 423.922 102.269 424.005 102.369L430.039 109.564C430.203 109.767 430.282 110.025 430.257 110.285C430.233 110.544 430.107 110.783 429.908 110.951C429.733 111.109 429.506 111.196 429.271 111.195Z" fill="#F59630"/>
</svg>
