<svg width="85" height="913" viewBox="0 0 85 913" fill="none" xmlns="http://www.w3.org/2000/svg">
<path d="M-407.516 125.091L84.4361 -101.589" stroke="#38414A" stroke-opacity="0.5" stroke-width="0.284338" stroke-dasharray="2.84 2.84"/>
<path d="M-401.745 137.615L90.2066 -89.0652" stroke="#38414A" stroke-opacity="0.5" stroke-width="0.284338" stroke-dasharray="2.84 2.84"/>
<path d="M-395.974 150.139L95.9781 -76.541" stroke="#38414A" stroke-opacity="0.5" stroke-width="0.284338" stroke-dasharray="2.84 2.84"/>
<path d="M-390.203 162.663L101.749 -64.0171" stroke="#38414A" stroke-opacity="0.5" stroke-width="0.284338" stroke-dasharray="2.84 2.84"/>
<path d="M-384.433 175.187L107.519 -51.4929" stroke="#38414A" stroke-opacity="0.5" stroke-width="0.284338" stroke-dasharray="2.84 2.84"/>
<path d="M-378.661 187.711L113.291 -38.9688" stroke="#38414A" stroke-opacity="0.5" stroke-width="0.284338" stroke-dasharray="2.84 2.84"/>
<path d="M-372.891 200.235L119.061 -26.4446" stroke="#38414A" stroke-opacity="0.5" stroke-width="0.284338" stroke-dasharray="2.84 2.84"/>
<path d="M-367.12 212.76L124.832 -13.9204" stroke="#38414A" stroke-opacity="0.5" stroke-width="0.284338" stroke-dasharray="2.84 2.84"/>
<path d="M-361.349 225.283L130.603 -1.3965" stroke="#38414A" stroke-opacity="0.5" stroke-width="0.284338" stroke-dasharray="2.84 2.84"/>
<path d="M-355.578 237.808L136.374 11.1277" stroke="#38414A" stroke-opacity="0.5" stroke-width="0.284338" stroke-dasharray="2.84 2.84"/>
<path d="M-349.808 250.332L142.144 23.6518" stroke="#38414A" stroke-opacity="0.5" stroke-width="0.284338" stroke-dasharray="2.84 2.84"/>
<path d="M-344.036 262.856L147.916 36.176" stroke="#38414A" stroke-opacity="0.5" stroke-width="0.284338" stroke-dasharray="2.84 2.84"/>
<path d="M-338.266 275.38L153.686 48.7002" stroke="#38414A" stroke-opacity="0.5" stroke-width="0.284338" stroke-dasharray="2.84 2.84"/>
<path d="M-332.495 287.904L159.457 61.2241" stroke="#38414A" stroke-opacity="0.5" stroke-width="0.284338" stroke-dasharray="2.84 2.84"/>
<path d="M-326.724 300.428L165.228 73.7483" stroke="#38414A" stroke-opacity="0.5" stroke-width="0.284338" stroke-dasharray="2.84 2.84"/>
<path d="M-320.953 312.952L170.999 86.2724" stroke="#38414A" stroke-opacity="0.5" stroke-width="0.284338" stroke-dasharray="2.84 2.84"/>
<path d="M-315.183 325.477L176.769 98.7966" stroke="#38414A" stroke-opacity="0.5" stroke-width="0.284338" stroke-dasharray="2.84 2.84"/>
<path d="M-309.412 338L182.54 111.321" stroke="#38414A" stroke-opacity="0.5" stroke-width="0.284338" stroke-dasharray="2.84 2.84"/>
<path d="M-303.641 350.525L188.311 123.845" stroke="#38414A" stroke-opacity="0.5" stroke-width="0.284338" stroke-dasharray="2.84 2.84"/>
<path d="M-297.87 363.049L194.082 136.369" stroke="#38414A" stroke-opacity="0.5" stroke-width="0.284338" stroke-dasharray="2.84 2.84"/>
<path d="M-292.1 375.573L199.852 148.893" stroke="#38414A" stroke-opacity="0.5" stroke-width="0.284338" stroke-dasharray="2.84 2.84"/>
<path d="M-286.328 388.097L205.624 161.417" stroke="#38414A" stroke-opacity="0.5" stroke-width="0.284338" stroke-dasharray="2.84 2.84"/>
<path d="M-280.558 400.621L211.394 173.941" stroke="#38414A" stroke-opacity="0.5" stroke-width="0.284338" stroke-dasharray="2.84 2.84"/>
<path d="M-274.787 413.145L217.165 186.465" stroke="#38414A" stroke-opacity="0.5" stroke-width="0.284338" stroke-dasharray="2.84 2.84"/>
<path d="M-269.016 425.669L222.936 198.989" stroke="#38414A" stroke-opacity="0.5" stroke-width="0.284338" stroke-dasharray="2.84 2.84"/>
<path d="M-263.245 438.194L228.707 211.514" stroke="#38414A" stroke-opacity="0.5" stroke-width="0.284338" stroke-dasharray="2.84 2.84"/>
<path d="M-257.475 450.718L234.477 224.038" stroke="#38414A" stroke-opacity="0.5" stroke-width="0.284338" stroke-dasharray="2.84 2.84"/>
<path d="M-251.703 463.242L240.249 236.562" stroke="#38414A" stroke-opacity="0.5" stroke-width="0.284338" stroke-dasharray="2.84 2.84"/>
<path d="M-245.933 475.766L246.019 249.086" stroke="#38414A" stroke-opacity="0.5" stroke-width="0.284338" stroke-dasharray="2.84 2.84"/>
<path d="M-240.162 488.29L251.79 261.61" stroke="#38414A" stroke-opacity="0.5" stroke-width="0.284338" stroke-dasharray="2.84 2.84"/>
<path d="M-234.391 500.814L257.561 274.134" stroke="#38414A" stroke-opacity="0.5" stroke-width="0.284338" stroke-dasharray="2.84 2.84"/>
<path d="M-228.62 513.338L263.332 286.658" stroke="#38414A" stroke-opacity="0.5" stroke-width="0.284338" stroke-dasharray="2.84 2.84"/>
<path d="M-222.85 525.862L269.102 299.182" stroke="#38414A" stroke-opacity="0.5" stroke-width="0.284338" stroke-dasharray="2.84 2.84"/>
<path d="M-217.078 538.386L274.874 311.707" stroke="#38414A" stroke-opacity="0.5" stroke-width="0.284338" stroke-dasharray="2.84 2.84"/>
<path d="M-211.308 550.911L280.644 324.231" stroke="#38414A" stroke-opacity="0.5" stroke-width="0.284338" stroke-dasharray="2.84 2.84"/>
<path d="M-205.537 563.435L286.415 336.755" stroke="#38414A" stroke-opacity="0.5" stroke-width="0.284338" stroke-dasharray="2.84 2.84"/>
<path d="M-199.766 575.959L292.186 349.279" stroke="#38414A" stroke-opacity="0.5" stroke-width="0.284338" stroke-dasharray="2.84 2.84"/>
<path d="M-193.995 588.483L297.957 361.803" stroke="#38414A" stroke-opacity="0.5" stroke-width="0.284338" stroke-dasharray="2.84 2.84"/>
<path d="M-188.225 601.007L303.727 374.327" stroke="#38414A" stroke-opacity="0.5" stroke-width="0.284338" stroke-dasharray="2.84 2.84"/>
<path d="M-182.453 613.531L309.499 386.851" stroke="#38414A" stroke-opacity="0.5" stroke-width="0.284338" stroke-dasharray="2.84 2.84"/>
<path d="M-176.683 626.055L315.269 399.375" stroke="#38414A" stroke-opacity="0.5" stroke-width="0.284338" stroke-dasharray="2.84 2.84"/>
<path d="M-170.912 638.58L321.04 411.9" stroke="#38414A" stroke-opacity="0.5" stroke-width="0.284338" stroke-dasharray="2.84 2.84"/>
<path d="M-165.141 651.104L326.811 424.424" stroke="#38414A" stroke-opacity="0.5" stroke-width="0.284338" stroke-dasharray="2.84 2.84"/>
<path d="M-159.37 663.628L332.582 436.948" stroke="#38414A" stroke-opacity="0.5" stroke-width="0.284338" stroke-dasharray="2.84 2.84"/>
<path d="M-153.6 676.152L338.352 449.472" stroke="#38414A" stroke-opacity="0.5" stroke-width="0.284338" stroke-dasharray="2.84 2.84"/>
<path d="M-147.828 688.676L344.124 461.996" stroke="#38414A" stroke-opacity="0.5" stroke-width="0.284338" stroke-dasharray="2.84 2.84"/>
<path d="M-142.058 701.2L349.894 474.52" stroke="#38414A" stroke-opacity="0.5" stroke-width="0.284338" stroke-dasharray="2.84 2.84"/>
<path d="M-136.287 713.724L355.665 487.044" stroke="#38414A" stroke-opacity="0.5" stroke-width="0.284338" stroke-dasharray="2.84 2.84"/>
<path d="M-130.516 726.249L361.436 499.569" stroke="#38414A" stroke-opacity="0.5" stroke-width="0.284338" stroke-dasharray="2.84 2.84"/>
<path d="M-124.745 738.773L367.207 512.093" stroke="#38414A" stroke-opacity="0.5" stroke-width="0.284338" stroke-dasharray="2.84 2.84"/>
<path d="M-118.975 751.297L372.977 524.617" stroke="#38414A" stroke-opacity="0.5" stroke-width="0.284338" stroke-dasharray="2.84 2.84"/>
<path d="M-113.203 763.821L378.749 537.141" stroke="#38414A" stroke-opacity="0.5" stroke-width="0.284338" stroke-dasharray="2.84 2.84"/>
<path d="M-107.433 776.345L384.519 549.665" stroke="#38414A" stroke-opacity="0.5" stroke-width="0.284338" stroke-dasharray="2.84 2.84"/>
<path d="M-101.662 788.869L390.29 562.189" stroke="#38414A" stroke-opacity="0.5" stroke-width="0.284338" stroke-dasharray="2.84 2.84"/>
<path d="M-95.8906 801.393L396.061 574.713" stroke="#38414A" stroke-opacity="0.5" stroke-width="0.284338" stroke-dasharray="2.84 2.84"/>
<path d="M-90.1201 813.918L401.832 587.238" stroke="#38414A" stroke-opacity="0.5" stroke-width="0.284338" stroke-dasharray="2.84 2.84"/>
<path d="M-84.3496 826.442L407.602 599.762" stroke="#38414A" stroke-opacity="0.5" stroke-width="0.284338" stroke-dasharray="2.84 2.84"/>
<path d="M-78.5781 838.966L413.374 612.286" stroke="#38414A" stroke-opacity="0.5" stroke-width="0.284338" stroke-dasharray="2.84 2.84"/>
<path d="M-72.8076 851.49L419.144 624.81" stroke="#38414A" stroke-opacity="0.5" stroke-width="0.284338" stroke-dasharray="2.84 2.84"/>
<path d="M-67.0371 864.014L424.915 637.334" stroke="#38414A" stroke-opacity="0.5" stroke-width="0.284338" stroke-dasharray="2.84 2.84"/>
<path d="M-61.2656 876.538L430.686 649.858" stroke="#38414A" stroke-opacity="0.5" stroke-width="0.284338" stroke-dasharray="2.84 2.84"/>
<path d="M-55.4951 889.062L436.457 662.383" stroke="#38414A" stroke-opacity="0.5" stroke-width="0.284338" stroke-dasharray="2.84 2.84"/>
<path d="M-49.7246 901.587L442.227 674.907" stroke="#38414A" stroke-opacity="0.5" stroke-width="0.284338" stroke-dasharray="2.84 2.84"/>
<path d="M-43.9531 914.111L447.999 687.431" stroke="#38414A" stroke-opacity="0.5" stroke-width="0.284338" stroke-dasharray="2.84 2.84"/>
<path d="M-38.1826 926.635L453.769 699.955" stroke="#38414A" stroke-opacity="0.5" stroke-width="0.284338" stroke-dasharray="2.84 2.84"/>
<path d="M-32.4121 939.159L459.54 712.479" stroke="#38414A" stroke-opacity="0.5" stroke-width="0.284338" stroke-dasharray="2.84 2.84"/>
<path d="M-26.6406 951.683L465.311 725.003" stroke="#38414A" stroke-opacity="0.5" stroke-width="0.284338" stroke-dasharray="2.84 2.84"/>
<path d="M-20.8701 964.207L471.082 737.527" stroke="#38414A" stroke-opacity="0.5" stroke-width="0.284338" stroke-dasharray="2.84 2.84"/>
<path d="M-15.0996 976.731L476.852 750.052" stroke="#38414A" stroke-opacity="0.5" stroke-width="0.284338" stroke-dasharray="2.84 2.84"/>
<path d="M-9.32812 989.256L482.624 762.576" stroke="#38414A" stroke-opacity="0.5" stroke-width="0.284338" stroke-dasharray="2.84 2.84"/>
<path d="M-3.55762 1001.78L488.394 775.1" stroke="#38414A" stroke-opacity="0.5" stroke-width="0.284338" stroke-dasharray="2.84 2.84"/>
<path d="M2.21289 1014.3L494.165 787.624" stroke="#38414A" stroke-opacity="0.5" stroke-width="0.284338" stroke-dasharray="2.84 2.84"/>
</svg>
