<svg width="27" height="27" viewBox="0 0 27 27" fill="none" xmlns="http://www.w3.org/2000/svg">
<g id="Envelope / Light / Solid">
<path id="Shape" fill-rule="evenodd" clip-rule="evenodd" d="M4.7864 4.07422C3.00589 4.07422 1.5625 5.48575 1.5625 7.22695V19.8379C1.5625 21.5791 3.00589 22.9906 4.7864 22.9906H21.9806C23.7611 22.9906 25.2045 21.5791 25.2045 19.8379V7.22695C25.2045 5.48575 23.7611 4.07422 21.9806 4.07422H4.7864ZM7.62366 8.52147C7.16772 8.14991 6.49009 8.21015 6.11014 8.65603C5.73019 9.1019 5.79179 9.76457 6.24773 10.1361L11.3196 14.2694C12.5152 15.2437 14.2518 15.2437 15.4474 14.2694L20.5193 10.1361C20.9752 9.76457 21.0368 9.1019 20.6569 8.65603C20.2769 8.21015 19.5993 8.14991 19.1433 8.52147L14.0715 12.6547C13.6729 12.9795 13.0941 12.9795 12.6955 12.6547L7.62366 8.52147Z" fill="#38414A"/>
</g>
</svg>
