<svg width="58" height="152" viewBox="0 0 58 152" fill="none" xmlns="http://www.w3.org/2000/svg">
<g filter="url(#filter0_dddd_5069_386239)">
<path d="M44 130L18.8151 119.506C15.8993 118.291 14 115.442 14 112.283L14 29.5845C14 26.5985 15.6994 23.8728 18.3806 22.5585L44 9.99999L44 130Z" fill="#F59630"/>
</g>
<path d="M36.1101 48.4204L26.375 48.4204L26.375 47.13L36.1101 47.13L36.1101 48.4204ZM31.7307 52.499L30.6742 52.499L30.6742 48.1396L31.7307 48.1396L31.7307 52.499ZM36.1101 53.1609L35.0537 53.1609L35.0537 48.1396L36.1101 48.1396L36.1101 53.1609ZM26.2413 57.5622C26.2413 57.0585 26.326 56.6016 26.4954 56.1915C26.6692 55.7859 26.9121 55.436 27.2241 55.1418C27.5362 54.852 27.9061 54.6292 28.3341 54.4731C28.762 54.3171 29.23 54.2391 29.7382 54.2391L30.019 54.2391C30.6074 54.2391 31.1311 54.326 31.5902 54.4999C32.0538 54.6737 32.4461 54.91 32.767 55.2086C33.0879 55.5073 33.3309 55.846 33.4958 56.2249C33.6607 56.6038 33.7432 56.9961 33.7432 57.4017C33.7432 57.9188 33.654 58.3645 33.4757 58.7389C33.2975 59.1178 33.0478 59.4276 32.7269 59.6683C32.4104 59.909 32.036 60.0873 31.6036 60.2032C31.1757 60.3191 30.7077 60.3771 30.1995 60.3771L29.6446 60.3771L29.6446 54.9746L30.6542 54.9746L30.6542 59.1401L30.7478 59.1401C31.0687 59.1223 31.3807 59.0554 31.6838 58.9395C31.987 58.8281 32.2366 58.6498 32.4327 58.4046C32.6288 58.1595 32.7269 57.8252 32.7269 57.4017C32.7269 57.1209 32.6667 56.8623 32.5464 56.6261C32.4305 56.3899 32.2566 56.187 32.0248 56.0177C31.7931 55.8483 31.51 55.7168 31.1757 55.6232C30.8414 55.5296 30.4558 55.4828 30.019 55.4828L29.7382 55.4828C29.3949 55.4828 29.0718 55.5296 28.7687 55.6232C28.47 55.7212 28.207 55.8616 27.9797 56.0444C27.7524 56.2316 27.5741 56.4567 27.4448 56.7197C27.3155 56.9872 27.2509 57.2903 27.2509 57.629C27.2509 58.0659 27.34 58.4358 27.5183 58.7389C27.6966 59.042 27.9351 59.3073 28.2338 59.5346L27.6387 60.2835C27.4024 60.1274 27.1773 59.9291 26.9634 59.6884C26.7494 59.4477 26.5756 59.1513 26.4419 58.7991C26.3081 58.4514 26.2413 58.0391 26.2413 57.5622ZM26.2413 65.019C26.2413 64.5153 26.326 64.0584 26.4954 63.6483C26.6692 63.2427 26.9121 62.8928 27.2241 62.5986C27.5362 62.3089 27.9061 62.086 28.3341 61.93C28.762 61.774 29.23 61.696 29.7382 61.696L30.019 61.696C30.6074 61.696 31.1311 61.7829 31.5902 61.9567C32.0538 62.1306 32.4461 62.3668 32.767 62.6655C33.0879 62.9641 33.3309 63.3029 33.4958 63.6818C33.6607 64.0607 33.7432 64.4529 33.7432 64.8585C33.7432 65.3756 33.654 65.8214 33.4757 66.1958C33.2975 66.5747 33.0478 66.8845 32.7269 67.1252C32.4104 67.3659 32.036 67.5442 31.6036 67.6601C31.1757 67.776 30.7077 67.8339 30.1995 67.8339L29.6446 67.8339L29.6446 62.4314L30.6542 62.4314L30.6542 66.597L30.7478 66.597C31.0687 66.5791 31.3807 66.5123 31.6838 66.3964C31.987 66.2849 32.2366 66.1066 32.4327 65.8615C32.6288 65.6163 32.7269 65.282 32.7269 64.8585C32.7269 64.5777 32.6667 64.3192 32.5464 64.0829C32.4305 63.8467 32.2566 63.6439 32.0248 63.4745C31.7931 63.3051 31.51 63.1736 31.1757 63.08C30.8414 62.9864 30.4558 62.9396 30.019 62.9396L29.7382 62.9396C29.3949 62.9396 29.0718 62.9864 28.7687 63.08C28.47 63.1781 28.207 63.3185 27.9797 63.5012C27.7524 63.6885 27.5741 63.9136 27.4448 64.1765C27.3155 64.444 27.2509 64.7471 27.2509 65.0859C27.2509 65.5227 27.34 65.8927 27.5183 66.1958C27.6966 66.4989 27.9351 66.7641 28.2338 66.9914L27.6387 67.7403C27.4024 67.5843 27.1773 67.3859 26.9634 67.1452C26.7494 66.9045 26.5756 66.6081 26.4419 66.256C26.3081 65.9083 26.2413 65.496 26.2413 65.019ZM27.7791 74.0337L36.645 74.0337L36.645 75.2774L26.375 75.2774L26.375 74.1407L27.7791 74.0337ZM29.912 69.1662L30.0524 69.1662C30.6051 69.1662 31.1066 69.233 31.5568 69.3668C32.0115 69.5049 32.4015 69.6988 32.7269 69.9485C33.0523 70.2025 33.3019 70.5034 33.4757 70.8511C33.654 71.2032 33.7432 71.5955 33.7432 72.0279C33.7432 72.4825 33.663 72.8792 33.5025 73.218C33.3465 73.5612 33.1169 73.851 32.8138 74.0872C32.5152 74.3279 32.1541 74.5174 31.7306 74.6555C31.3072 74.7937 30.828 74.8896 30.2931 74.9431L29.678 74.9431C29.1475 74.894 28.6706 74.7982 28.2471 74.6555C27.8237 74.5174 27.4626 74.3279 27.164 74.0872C26.8653 73.851 26.6358 73.5612 26.4753 73.218C26.3193 72.8748 26.2413 72.4736 26.2413 72.0145C26.2413 71.591 26.3327 71.2032 26.5154 70.8511C26.6982 70.5034 26.9545 70.2025 27.2843 69.9485C27.6142 69.6988 28.002 69.5049 28.4477 69.3668C28.8979 69.233 29.386 69.1662 29.912 69.1662ZM30.0524 70.4098L29.912 70.4098C29.5509 70.4098 29.2122 70.4455 28.8957 70.5168C28.5792 70.5926 28.3006 70.7085 28.0599 70.8645C27.8192 71.0205 27.6298 71.2188 27.4916 71.4595C27.3579 71.7002 27.291 71.9878 27.291 72.3221C27.291 72.7321 27.3779 73.0687 27.5518 73.3317C27.7256 73.5991 27.9552 73.8131 28.2404 73.9736C28.5257 74.134 28.8355 74.2588 29.1698 74.348L30.7812 74.348C31.0264 74.2945 31.2626 74.2165 31.4899 74.114C31.7217 74.0159 31.9268 73.8866 32.1051 73.7262C32.2878 73.5702 32.4327 73.3763 32.5397 73.1445C32.6467 72.9171 32.7001 72.6475 32.7001 72.3354C32.7001 71.9967 32.6288 71.7047 32.4862 71.4595C32.348 71.2188 32.1563 71.0205 31.9112 70.8645C31.6705 70.7085 31.3897 70.5926 31.0687 70.5168C30.7522 70.4455 30.4135 70.4098 30.0524 70.4098Z" fill="white"/>
<path d="M29.7321 93.0387C29.5982 93.1829 29.3839 93.1829 29.2768 93.0387L28.7411 92.4618C28.6071 92.3464 28.6071 92.1156 28.7411 91.9714L31.3393 89.2598H24.6964C24.5089 89.2598 24.375 89.1156 24.375 88.9137V88.106C24.375 87.9329 24.5089 87.7598 24.6964 87.7598H31.3393L28.7411 85.0771C28.6071 84.9329 28.6071 84.7021 28.7411 84.5868L29.2768 84.0098C29.3839 83.8656 29.5982 83.8656 29.7321 84.0098L33.6964 88.2791C33.8304 88.4233 33.8304 88.6252 33.6964 88.7695L29.7321 93.0387ZM34.9821 93.731V83.3464C34.9821 83.1445 35.1161 83.0002 35.3036 83.0002H36.0536C36.2143 83.0002 36.375 83.1445 36.375 83.3464V93.731C36.375 93.9041 36.2143 94.0771 36.0536 94.0771H35.3036C35.1161 94.0771 34.9821 93.9041 34.9821 93.731Z" fill="white"/>
<defs>
<filter id="filter0_dddd_5069_386239" x="0.306649" y="0.219035" width="57.3867" height="151.299" filterUnits="userSpaceOnUse" color-interpolation-filters="sRGB">
<feFlood flood-opacity="0" result="BackgroundImageFix"/>
<feColorMatrix in="SourceAlpha" type="matrix" values="0 0 0 0 0 0 0 0 0 0 0 0 0 0 0 0 0 0 127 0" result="hardAlpha"/>
<feMorphology radius="0.978096" operator="dilate" in="SourceAlpha" result="effect1_dropShadow_5069_386239"/>
<feOffset/>
<feColorMatrix type="matrix" values="0 0 0 0 0 0 0 0 0 0 0 0 0 0 0 0 0 0 0.05 0"/>
<feBlend mode="normal" in2="BackgroundImageFix" result="effect1_dropShadow_5069_386239"/>
<feColorMatrix in="SourceAlpha" type="matrix" values="0 0 0 0 0 0 0 0 0 0 0 0 0 0 0 0 0 0 127 0" result="hardAlpha"/>
<feMorphology radius="1.95619" operator="erode" in="SourceAlpha" result="effect2_dropShadow_5069_386239"/>
<feOffset dy="3.91239"/>
<feGaussianBlur stdDeviation="2.93429"/>
<feColorMatrix type="matrix" values="0 0 0 0 0 0 0 0 0 0 0 0 0 0 0 0 0 0 0.05 0"/>
<feBlend mode="normal" in2="effect1_dropShadow_5069_386239" result="effect2_dropShadow_5069_386239"/>
<feColorMatrix in="SourceAlpha" type="matrix" values="0 0 0 0 0 0 0 0 0 0 0 0 0 0 0 0 0 0 127 0" result="hardAlpha"/>
<feMorphology radius="2.93429" operator="erode" in="SourceAlpha" result="effect3_dropShadow_5069_386239"/>
<feOffset dy="9.78096"/>
<feGaussianBlur stdDeviation="7.33572"/>
<feColorMatrix type="matrix" values="0 0 0 0 0 0 0 0 0 0 0 0 0 0 0 0 0 0 0.1 0"/>
<feBlend mode="normal" in2="effect2_dropShadow_5069_386239" result="effect3_dropShadow_5069_386239"/>
<feColorMatrix in="SourceAlpha" type="matrix" values="0 0 0 0 0 0 0 0 0 0 0 0 0 0 0 0 0 0 127 0" result="hardAlpha"/>
<feMorphology radius="1.95619" operator="dilate" in="SourceAlpha" result="effect4_dropShadow_5069_386239"/>
<feOffset dy="3.91239"/>
<feGaussianBlur stdDeviation="5.86858"/>
<feComposite in2="hardAlpha" operator="out"/>
<feColorMatrix type="matrix" values="0 0 0 0 0 0 0 0 0 0 0 0 0 0 0 0 0 0 0.25 0"/>
<feBlend mode="normal" in2="effect3_dropShadow_5069_386239" result="effect4_dropShadow_5069_386239"/>
<feBlend mode="normal" in="SourceGraphic" in2="effect4_dropShadow_5069_386239" result="shape"/>
</filter>
</defs>
</svg>
