<svg width="202" height="12" viewBox="0 0 202 12" fill="none" xmlns="http://www.w3.org/2000/svg">
<g id="GLOBAL SETTING">
<path d="M9.53456 6.02406V10.2995C9.38174 10.5134 9.13835 10.754 8.8044 11.0214C8.47045 11.2834 8.00915 11.5134 7.42049 11.7112C6.83749 11.9037 6.08469 12 5.16208 12C4.40928 12 3.71591 11.877 3.08197 11.631C2.45369 11.3797 1.90748 11.016 1.44334 10.5401C0.98487 10.0588 0.628279 9.47594 0.373572 8.79144C0.124524 8.1016 0 7.32086 0 6.4492V5.54278C0 4.67112 0.107543 3.89305 0.32263 3.20856C0.543377 2.52406 0.866007 1.94385 1.29052 1.46791C1.71503 0.986631 2.23577 0.622995 2.85273 0.377005C3.46969 0.125668 4.17721 0 4.97529 0C5.92054 0 6.71014 0.15508 7.34408 0.465241C7.98368 0.770054 8.48177 1.19251 8.83836 1.73262C9.20061 2.27273 9.43268 2.8877 9.53456 3.57754H7.89594C7.82236 3.15508 7.6752 2.77005 7.45445 2.42246C7.23936 2.07487 6.93088 1.79679 6.52901 1.58824C6.12714 1.37433 5.60923 1.26738 4.97529 1.26738C4.40362 1.26738 3.90835 1.36631 3.4895 1.56417C3.07065 1.76203 2.72537 2.04545 2.45369 2.41444C2.182 2.78342 1.97823 3.22995 1.84239 3.75401C1.7122 4.27807 1.64711 4.86898 1.64711 5.52674V6.4492C1.64711 7.12299 1.72918 7.7246 1.89333 8.25401C2.06313 8.78342 2.30369 9.23529 2.615 9.60963C2.92631 9.97861 3.29705 10.2594 3.72723 10.4519C4.16306 10.6444 4.64417 10.7406 5.17057 10.7406C5.75357 10.7406 6.22619 10.6952 6.58844 10.6043C6.9507 10.508 7.2337 10.3957 7.43747 10.2674C7.64124 10.1337 7.79689 10.008 7.90443 9.89037V7.2754H5.04322V6.02406H9.53456Z" fill="#F59630"/>
<path d="M24.7909 10.5802V11.8396H18.61V10.5802H24.7909ZM18.9326 0.160428V11.8396H17.294V0.160428H18.9326Z" fill="#F59630"/>
<path d="M40.667 5.63102V6.36898C40.667 7.24599 40.551 8.03209 40.3189 8.72727C40.0868 9.42246 39.7529 10.0134 39.317 10.5C38.8812 10.9866 38.3576 11.3583 37.7463 11.615C37.1407 11.8717 36.4615 12 35.7087 12C34.9785 12 34.3078 11.8717 33.6965 11.615C33.0909 11.3583 32.5645 10.9866 32.1173 10.5C31.6758 10.0134 31.3334 9.42246 31.09 8.72727C30.8466 8.03209 30.7249 7.24599 30.7249 6.36898V5.63102C30.7249 4.75401 30.8438 3.97059 31.0815 3.28075C31.3249 2.58556 31.6673 1.99465 32.1088 1.50802C32.5503 1.01604 33.0739 0.641711 33.6795 0.385027C34.2908 0.128342 34.9615 0 35.6917 0C36.4445 0 37.1237 0.128342 37.7294 0.385027C38.3407 0.641711 38.8642 1.01604 39.3001 1.50802C39.7416 1.99465 40.0783 2.58556 40.3104 3.28075C40.5481 3.97059 40.667 4.75401 40.667 5.63102ZM39.0454 6.36898V5.61497C39.0454 4.91979 38.9689 4.30481 38.8161 3.77005C38.669 3.23529 38.451 2.7861 38.1624 2.42246C37.8737 2.05882 37.5199 1.78342 37.1011 1.59626C36.6879 1.40909 36.2181 1.31551 35.6917 1.31551C35.1823 1.31551 34.721 1.40909 34.3078 1.59626C33.9003 1.78342 33.5493 2.05882 33.255 2.42246C32.9663 2.7861 32.7428 3.23529 32.5843 3.77005C32.4258 4.30481 32.3465 4.91979 32.3465 5.61497V6.36898C32.3465 7.06952 32.4258 7.68984 32.5843 8.22995C32.7428 8.76471 32.9692 9.21658 33.2635 9.58556C33.5635 9.9492 33.9172 10.2246 34.3248 10.4118C34.738 10.5989 35.1993 10.6925 35.7087 10.6925C36.2407 10.6925 36.7134 10.5989 37.1266 10.4118C37.5398 10.2246 37.8879 9.9492 38.1709 9.58556C38.4595 9.21658 38.6774 8.76471 38.8246 8.22995C38.9718 7.68984 39.0454 7.06952 39.0454 6.36898Z" fill="#F59630"/>
<path d="M52.5697 6.37701H49.4368L49.4198 5.13369H52.264C52.7338 5.13369 53.1442 5.05882 53.4951 4.90909C53.846 4.75936 54.1177 4.54545 54.3102 4.26738C54.5083 3.98396 54.6073 3.64706 54.6073 3.25668C54.6073 2.82888 54.5196 2.48128 54.3441 2.2139C54.1743 1.94118 53.9111 1.74332 53.5545 1.62032C53.2036 1.49198 52.7565 1.42781 52.2131 1.42781H49.8018V11.8396H48.1632V0.160428H52.2131C52.847 0.160428 53.413 0.221925 53.9111 0.34492C54.4092 0.462567 54.8309 0.649733 55.1762 0.906417C55.5271 1.15775 55.7931 1.47861 55.9743 1.86898C56.1554 2.25936 56.246 2.72727 56.246 3.27273C56.246 3.75401 56.1158 4.18984 55.8554 4.58021C55.595 4.96524 55.2328 5.28075 54.7686 5.52674C54.3102 5.77273 53.7725 5.93048 53.1555 6L52.5697 6.37701ZM52.4933 11.8396H48.7915L49.7169 10.5802H52.4933C53.014 10.5802 53.4555 10.4947 53.8177 10.3235C54.1856 10.1524 54.4658 9.91177 54.6583 9.6016C54.8507 9.2861 54.9469 8.91444 54.9469 8.48663C54.9469 8.05348 54.8649 7.67914 54.7007 7.36364C54.5366 7.04813 54.279 6.80481 53.9281 6.63369C53.5772 6.46257 53.1244 6.37701 52.5697 6.37701H50.2348L50.2518 5.13369H53.4442L53.7923 5.58289C54.3866 5.63102 54.8903 5.79144 55.3035 6.06417C55.7167 6.33155 56.0309 6.6738 56.246 7.09091C56.4667 7.50802 56.5771 7.96791 56.5771 8.47059C56.5771 9.19786 56.4073 9.81283 56.0677 10.3155C55.7337 10.8128 55.2611 11.1925 54.6498 11.4545C54.0385 11.7112 53.3196 11.8396 52.4933 11.8396Z" fill="#F59630"/>
<path d="M68.6156 1.19519L64.5233 11.8396H62.8507L67.5628 0.160428H68.6411L68.6156 1.19519ZM72.0457 11.8396L67.9449 1.19519L67.9194 0.160428H68.9977L73.7267 11.8396H72.0457ZM71.8334 7.51604V8.78342H64.8884V7.51604H71.8334Z" fill="#F59630"/>
<path d="M87.9218 10.5802V11.8396H81.7409V10.5802H87.9218ZM82.0635 0.160428V11.8396H80.4249V0.160428H82.0635Z" fill="#F59630"/>
<path d="M110.785 8.8877C110.785 8.61497 110.739 8.37433 110.649 8.16578C110.564 7.95187 110.411 7.75936 110.19 7.58824C109.975 7.41711 109.675 7.25401 109.29 7.09893C108.911 6.94385 108.43 6.7861 107.847 6.62567C107.236 6.45455 106.684 6.26471 106.191 6.05615C105.699 5.84225 105.277 5.59893 104.926 5.3262C104.575 5.05348 104.307 4.74064 104.12 4.3877C103.933 4.03476 103.84 3.63102 103.84 3.17647C103.84 2.72193 103.939 2.30214 104.137 1.91711C104.335 1.53209 104.618 1.19786 104.986 0.914439C105.359 0.625668 105.804 0.40107 106.319 0.240642C106.834 0.0802139 107.408 0 108.042 0C108.971 0 109.757 0.168449 110.403 0.505348C111.054 0.836898 111.549 1.27273 111.888 1.81283C112.228 2.34759 112.398 2.91979 112.398 3.52941H110.768C110.768 3.09091 110.669 2.70321 110.471 2.36631C110.272 2.02406 109.972 1.75668 109.571 1.56417C109.169 1.36631 108.659 1.26738 108.042 1.26738C107.459 1.26738 106.978 1.35027 106.599 1.51604C106.22 1.68182 105.937 1.90642 105.75 2.18984C105.569 2.47326 105.478 2.79679 105.478 3.16043C105.478 3.40642 105.532 3.63102 105.64 3.83422C105.753 4.03209 105.925 4.21658 106.157 4.3877C106.395 4.55882 106.695 4.71658 107.057 4.86096C107.425 5.00535 107.864 5.14439 108.373 5.27807C109.075 5.46524 109.681 5.6738 110.19 5.90374C110.7 6.13369 111.119 6.39305 111.447 6.68182C111.781 6.96524 112.027 7.28877 112.186 7.65241C112.35 8.0107 112.432 8.41711 112.432 8.87166C112.432 9.34759 112.33 9.77808 112.126 10.1631C111.922 10.5481 111.631 10.877 111.252 11.1497C110.872 11.4225 110.417 11.6337 109.885 11.7834C109.358 11.9278 108.77 12 108.119 12C107.547 12 106.984 11.9251 106.429 11.7754C105.88 11.6257 105.379 11.4011 104.926 11.1016C104.479 10.8021 104.12 10.4332 103.848 9.99465C103.582 9.5508 103.449 9.03743 103.449 8.45455H105.079C105.079 8.85562 105.161 9.20053 105.325 9.4893C105.49 9.77273 105.713 10.008 105.996 10.1952C106.285 10.3824 106.61 10.5214 106.973 10.6123C107.34 10.6979 107.723 10.7406 108.119 10.7406C108.69 10.7406 109.174 10.6658 109.571 10.516C109.967 10.3663 110.267 10.1524 110.471 9.87433C110.68 9.59626 110.785 9.26738 110.785 8.8877Z" fill="#F59630"/>
<path d="M127.416 10.5802V11.8396H120.87V10.5802H127.416ZM121.202 0.160428V11.8396H119.563V0.160428H121.202ZM126.55 5.18182V6.44118H120.87V5.18182H126.55ZM127.332 0.160428V1.42781H120.87V0.160428H127.332Z" fill="#F59630"/>
<path d="M139.226 0.160428V11.8396H137.613V0.160428H139.226ZM143.199 0.160428V1.42781H133.648V0.160428H143.199Z" fill="#F59630"/>
<path d="M154.779 0.160428V11.8396H153.166V0.160428H154.779ZM158.753 0.160428V1.42781H149.201V0.160428H158.753Z" fill="#F59630"/>
<path d="M167.387 0.160428V11.8396H165.748V0.160428H167.387Z" fill="#F59630"/>
<path d="M184.918 0.160428V11.8396H183.271L177.048 2.83155V11.8396H175.409V0.160428H177.048L183.297 9.19251V0.160428H184.918Z" fill="#F59630"/>
<path d="M202 6.02406V10.2995C201.847 10.5134 201.604 10.754 201.27 11.0214C200.936 11.2834 200.475 11.5134 199.886 11.7112C199.303 11.9037 198.55 12 197.628 12C196.875 12 196.181 11.877 195.547 11.631C194.919 11.3797 194.373 11.016 193.909 10.5401C193.45 10.0588 193.094 9.47594 192.839 8.79144C192.59 8.1016 192.465 7.32086 192.465 6.4492V5.54278C192.465 4.67112 192.573 3.89305 192.788 3.20856C193.009 2.52406 193.331 1.94385 193.756 1.46791C194.18 0.986631 194.701 0.622995 195.318 0.377005C195.935 0.125668 196.643 0 197.441 0C198.386 0 199.176 0.15508 199.81 0.465241C200.449 0.770054 200.947 1.19251 201.304 1.73262C201.666 2.27273 201.898 2.8877 202 3.57754H200.361C200.288 3.15508 200.141 2.77005 199.92 2.42246C199.705 2.07487 199.396 1.79679 198.994 1.58824C198.593 1.37433 198.075 1.26738 197.441 1.26738C196.869 1.26738 196.374 1.36631 195.955 1.56417C195.536 1.76203 195.191 2.04545 194.919 2.41444C194.647 2.78342 194.444 3.22995 194.308 3.75401C194.178 4.27807 194.113 4.86898 194.113 5.52674V6.4492C194.113 7.12299 194.195 7.7246 194.359 8.25401C194.529 8.78342 194.769 9.23529 195.08 9.60963C195.392 9.97861 195.762 10.2594 196.193 10.4519C196.628 10.6444 197.11 10.7406 197.636 10.7406C198.219 10.7406 198.692 10.6952 199.054 10.6043C199.416 10.508 199.699 10.3957 199.903 10.2674C200.107 10.1337 200.262 10.008 200.37 9.89037V7.2754H197.509V6.02406H202Z" fill="#F59630"/>
</g>
</svg>
