<svg width="59" height="206" viewBox="0 0 59 206" fill="none" xmlns="http://www.w3.org/2000/svg">
<g filter="url(#filter0_dddd_1402_65010)">
<path d="M45 184L16.2234 153.965C14.7965 152.476 14 150.493 14 148.43L14 48.6056C14 46.6749 14.6983 44.8093 15.966 43.353L45 10L45 184Z" fill="#F59630"/>
</g>
<path d="M30.3036 151.875C30.1585 152.031 29.9263 152.031 29.8103 151.875L29.2299 151.25C29.0848 151.125 29.0848 150.875 29.2299 150.719L32.0446 147.781L24.8482 147.781C24.6451 147.781 24.5 147.625 24.5 147.406L24.5 146.531C24.5 146.344 24.6451 146.156 24.8482 146.156L32.0446 146.156L29.2299 143.25C29.0848 143.094 29.0848 142.844 29.2299 142.719L29.8103 142.094C29.9263 141.938 30.1585 141.938 30.3036 142.094L34.5982 146.719C34.7433 146.875 34.7433 147.094 34.5982 147.25L30.3036 151.875ZM35.9911 152.625L35.9911 141.375C35.9911 141.156 36.1362 141 36.3393 141L37.1518 141C37.3259 141 37.5 141.156 37.5 141.375L37.5 152.625C37.5 152.813 37.3259 153 37.1518 153L36.3393 153C36.1362 153 35.9911 152.813 35.9911 152.625Z" fill="white"/>
<path d="M30.9561 49.5107L27.3125 49.5107C27.1302 49.3877 26.9251 49.1917 26.6973 48.9229C26.474 48.654 26.278 48.2826 26.1094 47.8086C25.9453 47.3392 25.8633 46.7331 25.8633 45.9902C25.8633 45.3841 25.9681 44.8258 26.1777 44.3154C26.3919 43.8096 26.7018 43.3698 27.1074 42.9961C27.5176 42.627 28.0143 42.3398 28.5977 42.1348C29.1855 41.9342 29.8509 41.834 30.5937 41.834L31.3662 41.834C32.109 41.834 32.7721 41.9206 33.3555 42.0937C33.9388 42.2715 34.4333 42.5312 34.8389 42.873C35.249 43.2148 35.5589 43.6341 35.7686 44.1309C35.9827 44.6276 36.0898 45.1973 36.0898 45.8398C36.0898 46.6009 35.9577 47.2367 35.6934 47.7471C35.4336 48.262 35.0736 48.6631 34.6133 48.9502C34.153 49.2419 33.6289 49.4287 33.041 49.5107L33.041 48.1914C33.401 48.1322 33.7292 48.0137 34.0254 47.8359C34.3216 47.6628 34.5586 47.4144 34.7363 47.0908C34.9186 46.7673 35.0098 46.3503 35.0098 45.8398C35.0098 45.3796 34.9255 44.9808 34.7568 44.6436C34.5882 44.3063 34.3467 44.0283 34.0322 43.8096C33.7178 43.5908 33.3372 43.4268 32.8906 43.3174C32.444 43.2126 31.9404 43.1602 31.3799 43.1602L30.5937 43.1602C30.0195 43.1602 29.5068 43.2262 29.0557 43.3584C28.6045 43.4951 28.2194 43.6888 27.9004 43.9395C27.5859 44.1901 27.3467 44.4886 27.1826 44.835C27.0186 45.1859 26.9365 45.5732 26.9365 45.9971C26.9365 46.4665 26.9753 46.847 27.0527 47.1387C27.1348 47.4303 27.2305 47.6582 27.3398 47.8223C27.4538 47.9863 27.5609 48.1117 27.6611 48.1982L29.8896 48.1982L29.8896 45.8945L30.9561 45.8945L30.9561 49.5107ZM36.5 53.0809L26 53.0809L26 51.8094L36.5 51.8094L36.5 53.0809ZM29.6162 54.9762L29.7734 54.9762C30.3066 54.9762 30.8011 55.0536 31.2568 55.2086C31.7171 55.3635 32.1159 55.5868 32.4531 55.8785C32.7949 56.1702 33.0592 56.5234 33.2461 56.9381C33.4375 57.3528 33.5332 57.8176 33.5332 58.3326C33.5332 58.8521 33.4375 59.3193 33.2461 59.734C33.0592 60.1533 32.7949 60.5087 32.4531 60.8004C32.1159 61.0966 31.7171 61.3222 31.2568 61.4771C30.8011 61.6321 30.3066 61.7096 29.7734 61.7096L29.6162 61.7096C29.083 61.7096 28.5885 61.6321 28.1328 61.4771C27.6771 61.3222 27.2783 61.0966 26.9365 60.8004C26.5993 60.5087 26.335 60.1555 26.1436 59.7408C25.9567 59.3307 25.8633 58.8658 25.8633 58.3463C25.8633 57.8268 25.9567 57.3596 26.1436 56.9449C26.335 56.5302 26.5993 56.1747 26.9365 55.8785C27.2783 55.5868 27.6771 55.3635 28.1328 55.2086C28.5885 55.0536 29.083 54.9762 29.6162 54.9762ZM29.7734 56.2408L29.6162 56.2408C29.2471 56.2408 28.8984 56.2841 28.5703 56.3707C28.2467 56.4573 27.9596 56.5872 27.709 56.7603C27.4583 56.9381 27.2601 57.1591 27.1143 57.4234C26.973 57.6878 26.9023 57.9954 26.9023 58.3463C26.9023 58.6926 26.973 58.9957 27.1143 59.2555C27.2601 59.5198 27.4583 59.7385 27.709 59.9117C27.9596 60.0849 28.2467 60.2148 28.5703 60.3014C28.8984 60.3925 29.2471 60.4381 29.6162 60.4381L29.7734 60.4381C30.138 60.4381 30.4821 60.3925 30.8057 60.3014C31.1338 60.2148 31.4232 60.0826 31.6738 59.9049C31.929 59.7317 32.1296 59.513 32.2754 59.2486C32.4212 58.9889 32.4941 58.6835 32.4941 58.3326C32.4941 57.9863 32.4212 57.6809 32.2754 57.4166C32.1296 57.1568 31.929 56.9381 31.6738 56.7604C31.4232 56.5872 31.1338 56.4573 30.8057 56.3707C30.4821 56.2841 30.138 56.2408 29.7734 56.2408ZM36.5 63.4887L36.5 64.7602L27.4355 64.7602L26 64.6508L26 63.4887L36.5 63.4887ZM29.7598 69.7572L29.6162 69.7572C29.0784 69.7572 28.5794 69.6934 28.1191 69.5658C27.6634 69.4382 27.2669 69.2514 26.9297 69.0053C26.5924 68.7592 26.3304 68.4584 26.1436 68.1029C25.9567 67.7475 25.8633 67.3396 25.8633 66.8793C25.8633 66.4099 25.943 65.9975 26.1025 65.642C26.2666 65.2911 26.5013 64.9949 26.8066 64.7533C27.112 64.5118 27.4811 64.3181 27.9141 64.1723C28.347 64.031 28.8346 63.933 29.377 63.8783L30.0059 63.8783C30.5527 63.933 31.0426 64.031 31.4756 64.1723C31.9085 64.3181 32.2777 64.5118 32.583 64.7533C32.8929 64.9949 33.1276 65.2911 33.2871 65.642C33.4512 65.9929 33.5332 66.4008 33.5332 66.8656C33.5332 67.3305 33.4421 67.7429 33.2598 68.1029C33.082 68.463 32.8268 68.7637 32.4941 69.0053C32.1615 69.2514 31.7627 69.4382 31.2978 69.5658C30.8376 69.6934 30.3249 69.7572 29.7598 69.7572ZM29.6162 68.4857L29.7598 68.4857C30.1289 68.4857 30.4753 68.4516 30.7988 68.3832C31.127 68.3148 31.4141 68.2055 31.6602 68.0551C31.9108 67.9047 32.1068 67.7064 32.248 67.4604C32.3939 67.2143 32.4668 66.9112 32.4668 66.5512C32.4668 66.2322 32.4121 65.9542 32.3027 65.7172C32.1934 65.4848 32.0452 65.2865 31.8584 65.1225C31.6761 64.9584 31.4665 64.824 31.2295 64.7191C30.9971 64.6189 30.7555 64.5437 30.5049 64.4936L28.8574 64.4936C28.5384 64.5665 28.2308 64.685 27.9346 64.849C27.6429 65.0176 27.4036 65.2409 27.2168 65.5189C27.0299 65.8015 26.9365 66.1501 26.9365 66.5648C26.9365 66.9066 27.0049 67.1983 27.1416 67.4398C27.2829 67.6859 27.4766 67.8842 27.7227 68.0346C27.9687 68.1895 28.2536 68.3034 28.5771 68.3764C28.9007 68.4493 29.2471 68.4857 29.6162 68.4857ZM27.2646 75.9182L31.0723 75.9182C31.3639 75.9182 31.6169 75.8589 31.8311 75.7404C32.0498 75.6265 32.2184 75.4533 32.3369 75.2209C32.4554 74.9885 32.5146 74.7014 32.5146 74.3596C32.5146 74.0406 32.46 73.7603 32.3506 73.5187C32.2412 73.2818 32.0977 73.0949 31.9199 72.9582C31.7422 72.826 31.5508 72.76 31.3457 72.76L31.3457 71.4953C31.61 71.4953 31.8721 71.5637 32.1318 71.7004C32.3916 71.8371 32.6263 72.0331 32.8359 72.2883C33.0501 72.548 33.2187 72.8579 33.3418 73.218C33.4694 73.5826 33.5332 73.9881 33.5332 74.4348C33.5332 74.9725 33.4421 75.4465 33.2598 75.8566C33.0775 76.2714 32.8018 76.5949 32.4326 76.8273C32.068 77.0643 31.61 77.1828 31.0586 77.1828L27.6133 77.1828C27.3672 77.1828 27.1051 77.2033 26.8271 77.2443C26.5492 77.2899 26.3099 77.356 26.1094 77.4426L26 77.4426L26 76.1232C26.1458 76.0594 26.3395 76.0093 26.5811 75.9728C26.8271 75.9364 27.055 75.9182 27.2646 75.9182ZM30.4844 76.1369L29.5957 76.1506L29.5957 74.8723C29.5957 74.5122 29.5661 74.1909 29.5068 73.9084C29.4521 73.6258 29.3678 73.3889 29.2539 73.1975C29.14 73.0061 28.9964 72.8602 28.8232 72.76C28.6546 72.6597 28.4564 72.6096 28.2285 72.6096C27.9961 72.6096 27.7842 72.662 27.5928 72.7668C27.4014 72.8716 27.2487 73.0288 27.1348 73.2385C27.0254 73.4527 26.9707 73.7147 26.9707 74.0246C26.9707 74.412 27.0527 74.7538 27.2168 75.05C27.3809 75.3462 27.5814 75.5809 27.8184 75.7541C28.0553 75.9318 28.2855 76.0275 28.5088 76.0412L27.9004 76.5812C27.709 76.5493 27.4971 76.4628 27.2646 76.3215C27.0322 76.1802 26.8089 75.9911 26.5947 75.7541C26.3851 75.5217 26.2096 75.2437 26.0684 74.9201C25.9316 74.6011 25.8633 74.2411 25.8633 73.84C25.8633 73.3387 25.9613 72.899 26.1572 72.5207C26.3532 72.147 26.6152 71.8553 26.9434 71.6457C27.276 71.4406 27.6475 71.3381 28.0576 71.3381C28.4541 71.3381 28.8027 71.4156 29.1035 71.5705C29.4089 71.7255 29.6618 71.9488 29.8623 72.2404C30.0674 72.5321 30.2223 72.883 30.3271 73.2932C30.432 73.7033 30.4844 74.1613 30.4844 74.6672L30.4844 76.1369ZM36.5 80.7461L26 80.7461L26 79.4746L36.5 79.4746L36.5 80.7461ZM28.5156 92.1451C28.748 92.1451 28.9531 92.1087 29.1309 92.0357C29.3131 91.9674 29.4772 91.8443 29.623 91.6666C29.7689 91.4934 29.9079 91.2519 30.04 90.942C30.1722 90.6367 30.3066 90.2493 30.4434 89.7799C30.5892 89.2877 30.751 88.8434 30.9287 88.4469C31.111 88.0504 31.3184 87.7109 31.5508 87.4283C31.7832 87.1458 32.0498 86.9293 32.3506 86.7789C32.6514 86.6285 32.9954 86.5533 33.3828 86.5533C33.7702 86.5533 34.1279 86.6331 34.4561 86.7926C34.7842 86.9521 35.069 87.1799 35.3105 87.4762C35.5566 87.777 35.748 88.1347 35.8848 88.5494C36.0215 88.9641 36.0898 89.4267 36.0898 89.9371C36.0898 90.6845 35.9463 91.318 35.6592 91.8375C35.3766 92.3616 35.0052 92.7604 34.5449 93.0338C34.0892 93.3072 33.6016 93.4439 33.082 93.4439L33.082 92.1314C33.4557 92.1314 33.7861 92.0517 34.0732 91.8922C34.3649 91.7327 34.5928 91.4911 34.7568 91.1676C34.9255 90.844 35.0098 90.4339 35.0098 89.9371C35.0098 89.4677 34.9391 89.0803 34.7978 88.775C34.6566 88.4697 34.4652 88.2418 34.2236 88.0914C33.9821 87.9456 33.7064 87.8727 33.3965 87.8727C33.1868 87.8727 32.9954 87.916 32.8223 88.0025C32.6536 88.0937 32.4964 88.2327 32.3506 88.4195C32.2047 88.6109 32.0703 88.8525 31.9473 89.1441C31.8242 89.4404 31.7057 89.7936 31.5918 90.2037C31.4323 90.7688 31.2546 91.2564 31.0586 91.6666C30.8626 92.0768 30.6416 92.414 30.3955 92.6783C30.154 92.9472 29.8783 93.1454 29.5684 93.273C29.263 93.4052 28.9167 93.4713 28.5293 93.4713C28.1237 93.4713 27.7568 93.3893 27.4287 93.2252C27.1006 93.0611 26.8203 92.8264 26.5879 92.5211C26.3555 92.2158 26.1755 91.8489 26.0478 91.4205C25.9248 90.9967 25.8633 90.5227 25.8633 89.9986C25.8633 89.5383 25.9271 89.0849 26.0547 88.6383C26.1823 88.1962 26.3737 87.7929 26.6289 87.4283C26.8841 87.0683 27.1986 86.7789 27.5723 86.5602C27.9505 86.346 28.388 86.2389 28.8848 86.2389L28.8848 87.5514C28.543 87.5514 28.249 87.6174 28.0029 87.7496C27.7614 87.8818 27.5609 88.0618 27.4014 88.2896C27.2419 88.5221 27.1234 88.7841 27.0459 89.0758C26.973 89.372 26.9365 89.6796 26.9365 89.9986C26.9365 90.4589 27.0003 90.8486 27.1279 91.1676C27.2555 91.4866 27.4378 91.7281 27.6748 91.8922C27.9118 92.0608 28.1921 92.1451 28.5156 92.1451ZM25.8633 98.2309C25.8633 97.7159 25.9499 97.2488 26.123 96.8295C26.3008 96.4148 26.5491 96.057 26.8682 95.7562C27.1872 95.46 27.5654 95.2322 28.0029 95.0727C28.4404 94.9131 28.9189 94.8334 29.4385 94.8334L29.7256 94.8334C30.3271 94.8334 30.8626 94.9223 31.332 95.1C31.806 95.2777 32.207 95.5193 32.5352 95.8246C32.8633 96.1299 33.1116 96.4763 33.2803 96.8637C33.4489 97.251 33.5332 97.6521 33.5332 98.0668C33.5332 98.5954 33.4421 99.0512 33.2598 99.434C33.0775 99.8214 32.8223 100.138 32.4941 100.384C32.1706 100.63 31.7878 100.813 31.3457 100.931C30.9082 101.05 30.4297 101.109 29.9102 101.109L29.3428 101.109L29.3428 95.5853L30.375 95.5853L30.375 99.8441L30.4707 99.8441C30.7988 99.8259 31.1178 99.7575 31.4277 99.6391C31.7376 99.5251 31.9928 99.3428 32.1934 99.0922C32.3939 98.8415 32.4941 98.4997 32.4941 98.0668C32.4941 97.7797 32.4326 97.5154 32.3096 97.2738C32.1911 97.0323 32.0133 96.8249 31.7764 96.6518C31.5394 96.4786 31.25 96.3441 30.9082 96.2484C30.5664 96.1527 30.1722 96.1049 29.7256 96.1049L29.4385 96.1049C29.0876 96.1049 28.7572 96.1527 28.4473 96.2484C28.1419 96.3487 27.873 96.4922 27.6406 96.6791C27.4082 96.8705 27.2259 97.1006 27.0937 97.3695C26.9616 97.643 26.8955 97.9529 26.8955 98.2992C26.8955 98.7458 26.9866 99.1241 27.1689 99.434C27.3512 99.7439 27.595 100.015 27.9004 100.247L27.292 101.013C27.0505 100.854 26.8203 100.651 26.6016 100.405C26.3828 100.159 26.2051 99.8555 26.0684 99.4955C25.9316 99.14 25.8633 98.7185 25.8633 98.2309ZM33.3965 105.882L32.4258 105.882L32.4258 101.883L33.3965 101.883L33.3965 105.882ZM35.1943 103.237L35.1943 104.501L27.832 104.501C27.5814 104.501 27.3922 104.54 27.2646 104.617C27.137 104.695 27.0527 104.795 27.0117 104.918C26.9707 105.041 26.9502 105.173 26.9502 105.315C26.9502 105.419 26.9593 105.529 26.9775 105.643C27.0003 105.761 27.0185 105.85 27.0322 105.909L26 105.916C25.9681 105.816 25.9385 105.684 25.9111 105.52C25.8792 105.36 25.8633 105.167 25.8633 104.939C25.8633 104.629 25.9248 104.344 26.0478 104.084C26.1709 103.824 26.376 103.617 26.6631 103.462C26.9547 103.312 27.3467 103.237 27.8389 103.237L35.1943 103.237ZM33.3965 110.662L32.4258 110.662L32.4258 106.663L33.3965 106.663L33.3965 110.662ZM35.1943 108.017L35.1943 109.281L27.832 109.281C27.5814 109.281 27.3922 109.32 27.2646 109.397C27.137 109.475 27.0527 109.575 27.0117 109.698C26.9707 109.821 26.9502 109.953 26.9502 110.095C26.9502 110.2 26.9593 110.309 26.9775 110.423C27.0003 110.541 27.0185 110.63 27.0322 110.689L26 110.696C25.9681 110.596 25.9385 110.464 25.9111 110.3C25.8792 110.14 25.8633 109.947 25.8633 109.719C25.8633 109.409 25.9248 109.124 26.0478 108.864C26.1709 108.604 26.376 108.397 26.6631 108.242C26.9547 108.092 27.3467 108.017 27.8389 108.017L35.1943 108.017ZM33.3965 113.72L26 113.72L26 112.448L33.3965 112.448L33.3965 113.72ZM35.3584 112.352C35.5635 112.352 35.7366 112.414 35.8779 112.537C36.0192 112.665 36.0898 112.851 36.0898 113.097C36.0898 113.339 36.0192 113.524 35.8779 113.651C35.7366 113.783 35.5635 113.849 35.3584 113.849C35.1624 113.849 34.9938 113.783 34.8525 113.651C34.7158 113.524 34.6475 113.339 34.6475 113.097C34.6475 112.851 34.7158 112.665 34.8525 112.537C34.9938 112.414 35.1624 112.352 35.3584 112.352ZM31.8174 117.214L26 117.214L26 115.95L33.3965 115.95L33.3965 117.146L31.8174 117.214ZM29.9785 116.914L29.999 116.387C30.5049 116.392 30.972 116.467 31.4004 116.613C31.8333 116.759 32.2093 116.964 32.5283 117.228C32.8473 117.492 33.0934 117.807 33.2666 118.171C33.4443 118.541 33.5332 118.949 33.5332 119.395C33.5332 119.76 33.4831 120.088 33.3828 120.379C33.2871 120.671 33.1322 120.92 32.918 121.125C32.7038 121.334 32.4258 121.494 32.084 121.603C31.7467 121.713 31.3343 121.767 30.8467 121.767L26 121.767L26 120.496L30.8603 120.496C31.2477 120.496 31.5576 120.439 31.79 120.325C32.027 120.211 32.1979 120.045 32.3027 119.826C32.4121 119.607 32.4668 119.338 32.4668 119.019C32.4668 118.705 32.4007 118.418 32.2685 118.158C32.1364 117.903 31.9541 117.682 31.7217 117.495C31.4893 117.312 31.2226 117.169 30.9219 117.064C30.6256 116.964 30.3112 116.914 29.9785 116.914ZM33.3965 128.68L33.3965 129.829L26.1572 129.829C25.5055 129.829 24.9495 129.696 24.4893 129.432C24.029 129.168 23.6803 128.799 23.4434 128.325C23.2018 127.855 23.081 127.313 23.081 126.698C23.081 126.442 23.1221 126.142 23.2041 125.795C23.2816 125.454 23.416 125.116 23.6074 124.784C23.7943 124.455 24.0472 124.18 24.3662 123.956L25.1182 124.62C24.7445 124.929 24.4847 125.253 24.3389 125.59C24.193 125.932 24.1201 126.269 24.1201 126.602C24.1201 127.003 24.1953 127.349 24.3457 127.641C24.4961 127.933 24.7194 128.158 25.0156 128.318C25.3073 128.482 25.6673 128.564 26.0957 128.564L31.7695 128.564L33.3965 128.68ZM29.6162 123.587L29.7598 123.587C30.3249 123.587 30.8376 123.653 31.2978 123.786C31.7627 123.922 32.1615 124.116 32.4941 124.367C32.8268 124.622 33.082 124.929 33.2598 125.289C33.442 125.649 33.5332 126.055 33.5332 126.506C33.5332 126.971 33.4512 127.377 33.2871 127.723C33.1276 128.074 32.8929 128.37 32.583 128.612C32.2777 128.858 31.9085 129.051 31.4756 129.193C31.0426 129.334 30.5527 129.432 30.0059 129.487L29.3769 129.487C28.8346 129.437 28.347 129.339 27.9141 129.193C27.4811 129.051 27.112 128.858 26.8066 128.612C26.5013 128.37 26.2666 128.074 26.1025 127.723C25.943 127.372 25.8633 126.962 25.8633 126.493C25.8633 126.051 25.9567 125.649 26.1435 125.289C26.3304 124.934 26.5924 124.629 26.9297 124.373C27.2669 124.118 27.6634 123.922 28.1191 123.786C28.5794 123.653 29.0784 123.587 29.6162 123.587ZM29.7598 124.852L29.6162 124.852C29.2471 124.852 28.9007 124.888 28.5771 124.961C28.2536 125.039 27.9687 125.155 27.7226 125.31C27.4766 125.469 27.2829 125.672 27.1416 125.918C27.0049 126.164 26.9365 126.458 26.9365 126.8C26.9365 127.219 27.0254 127.566 27.2031 127.839C27.3809 128.113 27.6156 128.329 27.9072 128.489C28.1989 128.653 28.5156 128.78 28.8574 128.871L30.5049 128.871C30.7555 128.821 30.9971 128.744 31.2295 128.639C31.4665 128.539 31.6761 128.407 31.8584 128.243C32.0452 128.083 32.1934 127.885 32.3027 127.648C32.4121 127.411 32.4668 127.133 32.4668 126.814C32.4668 126.468 32.3939 126.169 32.248 125.918C32.1068 125.672 31.9108 125.469 31.6601 125.31C31.4141 125.155 31.1269 125.039 30.7988 124.961C30.4753 124.888 30.1289 124.852 29.7598 124.852Z" fill="white"/>
<defs>
<filter id="filter0_dddd_1402_65010" x="0" y="0" width="59" height="206" filterUnits="userSpaceOnUse" color-interpolation-filters="sRGB">
<feFlood flood-opacity="0" result="BackgroundImageFix"/>
<feColorMatrix in="SourceAlpha" type="matrix" values="0 0 0 0 0 0 0 0 0 0 0 0 0 0 0 0 0 0 127 0" result="hardAlpha"/>
<feMorphology radius="1" operator="dilate" in="SourceAlpha" result="effect1_dropShadow_1402_65010"/>
<feOffset/>
<feColorMatrix type="matrix" values="0 0 0 0 0 0 0 0 0 0 0 0 0 0 0 0 0 0 0.05 0"/>
<feBlend mode="normal" in2="BackgroundImageFix" result="effect1_dropShadow_1402_65010"/>
<feColorMatrix in="SourceAlpha" type="matrix" values="0 0 0 0 0 0 0 0 0 0 0 0 0 0 0 0 0 0 127 0" result="hardAlpha"/>
<feMorphology radius="2" operator="erode" in="SourceAlpha" result="effect2_dropShadow_1402_65010"/>
<feOffset dy="4"/>
<feGaussianBlur stdDeviation="3"/>
<feColorMatrix type="matrix" values="0 0 0 0 0 0 0 0 0 0 0 0 0 0 0 0 0 0 0.05 0"/>
<feBlend mode="normal" in2="effect1_dropShadow_1402_65010" result="effect2_dropShadow_1402_65010"/>
<feColorMatrix in="SourceAlpha" type="matrix" values="0 0 0 0 0 0 0 0 0 0 0 0 0 0 0 0 0 0 127 0" result="hardAlpha"/>
<feMorphology radius="3" operator="erode" in="SourceAlpha" result="effect3_dropShadow_1402_65010"/>
<feOffset dy="10"/>
<feGaussianBlur stdDeviation="7.5"/>
<feColorMatrix type="matrix" values="0 0 0 0 0 0 0 0 0 0 0 0 0 0 0 0 0 0 0.1 0"/>
<feBlend mode="normal" in2="effect2_dropShadow_1402_65010" result="effect3_dropShadow_1402_65010"/>
<feColorMatrix in="SourceAlpha" type="matrix" values="0 0 0 0 0 0 0 0 0 0 0 0 0 0 0 0 0 0 127 0" result="hardAlpha"/>
<feMorphology radius="2" operator="dilate" in="SourceAlpha" result="effect4_dropShadow_1402_65010"/>
<feOffset dy="4"/>
<feGaussianBlur stdDeviation="6"/>
<feComposite in2="hardAlpha" operator="out"/>
<feColorMatrix type="matrix" values="0 0 0 0 0 0 0 0 0 0 0 0 0 0 0 0 0 0 0.25 0"/>
<feBlend mode="normal" in2="effect3_dropShadow_1402_65010" result="effect4_dropShadow_1402_65010"/>
<feBlend mode="normal" in="SourceGraphic" in2="effect4_dropShadow_1402_65010" result="shape"/>
</filter>
</defs>
</svg>
