<svg width="324" height="200" viewBox="0 0 324 200" fill="none" xmlns="http://www.w3.org/2000/svg">
<rect width="324" height="200" rx="20" fill="white" fill-opacity="0.3"/>
<rect x="1" y="1" width="322" height="198" rx="19" stroke="#D0D5DD" stroke-opacity="0.7" stroke-width="2"/>
<mask id="mask0_6769_424022" style="mask-type:alpha" maskUnits="userSpaceOnUse" x="0" y="0" width="324" height="200">
<rect width="324" height="200" rx="20" fill="#E8E8E8"/>
</mask>
<g mask="url(#mask0_6769_424022)">
<path d="M209.619 37.7919C219.325 28.736 234.674 28.736 244.381 37.7919L386.258 170.152C402.527 185.331 391.45 212 368.876 212H85.1238C62.5499 212 51.4729 185.331 67.7424 170.152L209.619 37.7919Z" fill="#9A9A9A"/>
<path d="M110.619 85.7919C120.325 76.736 135.674 76.736 145.381 85.7919L287.258 218.152C303.527 233.331 292.45 260 269.876 260H-13.8762C-36.4501 260 -47.5271 233.331 -31.2576 218.152L110.619 85.7919Z" fill="#7F8080"/>
</g>
<path fill-rule="evenodd" clip-rule="evenodd" d="M74.041 62.0891C66.3736 62.0891 60.0205 55.736 60.0205 47.959C60.0205 40.2915 66.3736 33.9385 74.041 33.9385C81.8181 33.9385 88.0616 40.2915 88.0616 47.959C88.0616 55.736 81.8181 62.0891 74.041 62.0891Z" fill="#7F8080"/>
<path fill-rule="evenodd" clip-rule="evenodd" d="M74.041 31.0905C70.974 31.0905 71.8502 26.49 71.8502 22.2181C71.8502 19.2606 76.2317 19.2606 76.2317 22.2181C76.2317 26.49 77.1079 31.0905 74.041 31.0905Z" fill="#7F8080"/>
<path fill-rule="evenodd" clip-rule="evenodd" d="M83.5705 33.6098C81.9275 33.6098 80.8321 31.8572 81.7084 30.3237C83.7896 26.5995 85.4326 22.2181 88.0615 23.7516C90.6903 25.2851 87.6233 28.8997 85.5422 32.5144C85.104 33.2812 84.3373 33.6098 83.5705 33.6098Z" fill="#7F8080"/>
<path fill-rule="evenodd" clip-rule="evenodd" d="M90.5814 40.62C88.3907 40.62 87.5144 37.6625 89.4861 36.5671C93.2103 34.3764 96.8249 31.3094 98.3584 34.0478C100.111 37.1148 91.2386 40.62 90.5814 40.62Z" fill="#7F8080"/>
<path fill-rule="evenodd" clip-rule="evenodd" d="M99.8919 50.1496C95.5105 50.1496 91.0195 51.1355 91.0195 47.9589C91.0195 44.8919 95.5105 45.7682 99.8919 45.7682C102.74 45.7682 102.74 50.1496 99.8919 50.1496Z" fill="#7F8080"/>
<path fill-rule="evenodd" clip-rule="evenodd" d="M96.3856 63.0747C95.2902 63.0747 91.0184 60.3363 89.4849 59.46C87.0751 58.0361 89.2658 54.2023 91.6756 55.6263C95.3998 57.817 99.8907 59.3505 98.3572 61.9793C97.9191 62.7461 97.1523 63.0747 96.3856 63.0747Z" fill="#7F8080"/>
<path fill-rule="evenodd" clip-rule="evenodd" d="M86.9658 72.6043C84.9941 72.6043 83.5702 68.7706 81.7081 65.7036C80.2841 63.1843 84.0083 60.9936 85.5418 63.5129C86.8562 65.8131 91.8949 72.6043 86.9658 72.6043Z" fill="#7F8080"/>
<path fill-rule="evenodd" clip-rule="evenodd" d="M74.041 75.9998C70.974 75.9998 71.8502 71.5088 71.8502 67.1274C71.8502 64.2795 76.2317 64.2795 76.2317 67.1274C76.2317 71.3993 77.1079 75.9998 74.041 75.9998Z" fill="#7F8080"/>
<path fill-rule="evenodd" clip-rule="evenodd" d="M61.1164 72.6044C59.4734 72.6044 58.378 70.7423 59.2543 69.3183C61.3355 65.5941 62.9785 61.1032 65.6074 62.6367C68.2362 64.1701 65.1692 67.7848 63.0881 71.509C62.6499 72.1662 61.8832 72.6044 61.1164 72.6044Z" fill="#7F8080"/>
<path fill-rule="evenodd" clip-rule="evenodd" d="M51.6957 63.0749C49.505 63.0749 48.6287 60.1175 50.6003 59.0221C54.3245 56.8314 57.8297 53.8739 59.3632 56.5028C61.0062 59.1316 56.5152 60.6651 52.791 62.8558C52.4624 62.9654 52.0243 63.0749 51.6957 63.0749Z" fill="#7F8080"/>
<path fill-rule="evenodd" clip-rule="evenodd" d="M54.9819 50.1496C50.6005 50.1496 46 51.1355 46 47.9589C46 44.8919 50.6005 45.7682 54.9819 45.7682C57.8298 45.7682 57.8298 50.1496 54.9819 50.1496Z" fill="#7F8080"/>
<path fill-rule="evenodd" clip-rule="evenodd" d="M57.5008 40.6201C56.4054 40.6201 52.024 37.8817 50.6001 37.0054C48.0807 35.5815 50.2714 31.7477 52.7908 33.1717C56.515 35.3624 60.8964 36.8959 59.3629 39.5248C59.0343 40.2915 58.2675 40.6201 57.5008 40.6201Z" fill="#7F8080"/>
<path fill-rule="evenodd" clip-rule="evenodd" d="M64.5117 33.6096C62.54 33.6096 61.0065 29.8854 59.254 26.7089C57.83 24.2991 61.5542 21.9989 63.0877 24.5182C64.4021 26.8184 69.4408 33.6096 64.5117 33.6096Z" fill="#7F8080"/>
</svg>
