<svg width="32" height="32" viewBox="0 0 32 32" fill="none" xmlns="http://www.w3.org/2000/svg">
<g id="Iconly/Bold/Profile">
<g id="Group">
<path id="Vector" d="M25.122 14.0102H23.9269V10.3712C23.9269 6.65276 20.9018 3.62695 17.1836 3.62695C13.464 3.62695 10.4394 6.65235 10.4394 10.3712V14.0102H9.2447C8.5571 14.0102 8 14.5675 8 15.2549V27.6042C8 28.2915 8.5571 28.8488 9.2447 28.8488H25.1221C25.8083 28.8488 26.3668 28.2915 26.3668 27.6042V15.2549C26.3668 14.5675 25.8082 14.0102 25.122 14.0102ZM12.9285 10.3712C12.9285 8.02458 14.837 6.11615 17.1835 6.11615C19.5295 6.11615 21.438 8.02458 21.438 10.3712V14.0102H12.9285V10.3712Z" fill="#38414A"/>
</g>
</g>
</svg>
