<?xml version="1.0" encoding="UTF-8"?><svg id="Ebene_2" xmlns="http://www.w3.org/2000/svg" viewBox="0 0 1266 777"><g id="Ebene_2-2"><rect width="1266" height="777" fill="#f59630"/><path d="m268.28,311.9v.07s.02-.02.04-.04c0,0-.02,0-.04-.02" fill="#fff"/><path d="m363.53,337c0-3.6,2.49-6.09,5.67-6.09h21.15c29.84,0,47.53,16.72,47.53,44.51s-18.24,44.91-48.37,44.91h-20.05c-3.46,0-5.93-2.62-5.93-5.93,0,0,0-77.4,0-77.4Zm63.57,38.56c0-22.52-13.68-35.67-37.04-35.67h-16.17v71.47h16.04c23.62,0,37.19-12.99,37.19-35.8" fill="#fff"/><path d="m464.71,375.85c0-27.24,17.82-46.45,43.81-46.45s43.39,18.95,43.39,46.17-17.69,46.3-43.67,46.3-43.54-18.79-43.54-46.01m76.56-.13c0-21.97-13.41-37.32-33.02-37.32s-32.89,15.07-32.89,37.32,13.54,37.17,33.04,37.17,32.89-15.07,32.89-37.17" fill="#fff"/><path d="m623.26,329.41c12.71,0,21.71,4.43,26.95,9.26,3.86,3.31,5.96,7.32,5.96,9.82,0,5.25-6.09,6.35-6.51,5.93-4.57-9.53-14.8-15.9-26.54-15.9-19.48,0-32.89,15.07-32.89,37.19s13.54,37.04,33.18,37.04c14.25,0,23.78-8.01,27.09-17.82.26-.42,6.9.55,6.9,5.8,0,2.76-2.21,7.46-6.77,11.6-5.38,4.99-14.93,9.53-27.64,9.53-26.12,0-43.54-18.95-43.54-46.01s17.69-46.45,43.81-46.45" fill="#fff"/><path d="m681.03,404.04c0-3.73,4.57-6.22,4.96-5.8,4.15,7.61,12.86,14.93,26.8,14.93,13.12,0,21.29-6.09,21.29-16.3,0-11.47-11.05-14.23-23.62-17.27-13.68-3.46-27.22-8.03-27.22-25.3,0-14.65,12.71-24.88,30.13-24.88,11.6,0,20.03,3.73,24.73,8.03,2.76,2.62,4.28,5.51,4.28,7.87,0,4.01-4.83,6.35-5.12,5.93-3.86-6.9-12.02-13.12-23.91-13.12s-20.03,6.22-20.03,15.9c0,10.92,9.4,13.12,22.26,16.3,14.51,3.46,28.74,8.85,28.74,25.98,0,15.62-12.29,25.57-31.37,25.57-13.12,0-22.52-4.28-27.64-9.4-2.91-2.91-4.28-6.09-4.28-8.43" fill="#fff"/><path d="m773.17,416.72v-80.86c0-3.18,1.52-4.7,4.43-4.7h1.39c3.04,0,4.57,1.52,4.57,4.7v35.67h51v-35.67c0-3.18,1.39-4.7,4.28-4.7h1.52c3.04,0,4.57,1.52,4.57,4.7v80.86c0,3.04-1.52,4.7-4.57,4.7h-1.52c-2.91,0-4.28-1.65-4.28-4.7v-35.93h-51v35.93c0,3.04-1.52,4.7-4.57,4.7h-1.39c-2.91,0-4.43-1.65-4.43-4.7" fill="#fff"/><path d="m880.3,415.04v-77.4c0-3.6,2.21-6.09,5.67-6.09h51.42c3.18,0,4.83,1.52,4.83,4.28v.68c0,2.91-1.65,4.28-4.83,4.28h-46.72v29.84h35.8c3.33,0,4.99,1.52,4.99,4.15v.55c0,2.89-1.65,4.28-4.99,4.28h-35.8v32.07h47.82c3.18,0,4.83,1.39,4.83,4.15v.68c0,2.91-1.65,4.43-4.83,4.43h-52.52c-3.44,0-5.67-2.34-5.67-5.93" fill="#fff"/><path d="m1060.8,376.48c0-27.24,17.82-46.45,43.81-46.45s43.39,18.95,43.39,46.17-17.69,46.3-43.67,46.3-43.54-18.79-43.54-46.01m76.56-.13c0-21.97-13.41-37.32-33.02-37.32s-32.89,15.07-32.89,37.32,13.54,37.17,33.04,37.17,32.89-15.07,32.89-37.17" fill="#fff"/><path d="m977.71,422.7c-2.69,0-4.85-2.18-4.85-4.85v-36.68c0-3.31,2.69-6,6-6h26.29c9.55,0,17.32-7.76,17.32-17.32s-7.76-17.32-17.32-17.32h-28.06c-2.69,0-4.85-2.18-4.85-4.85s2.16-4.85,4.85-4.85h28.06c14.89,0,27.02,12.13,27.02,27.02s-12.13,27.02-27.02,27.02h-22.59v32.95c0,2.69-2.18,4.85-4.85,4.85" fill="#fff"/><path d="m1028.09,421.55c-1.39,0-2.78-.6-3.73-1.74l-29.76-35.54c-1.72-2.05-1.46-5.12.62-6.84,2.05-1.72,5.12-1.43,6.84.6l29.76,35.54c1.72,2.05,1.46,5.12-.62,6.84-.9.77-2.01,1.12-3.11,1.12" fill="#fff"/><path d="m305.01,311.63c-3.68-10.7-8.91-16.76-15.09-21.62-1.39-3.24-2.6-3.97-5.87-5.56-4.83-2.58-9.99-2.45-14.54-5.69-.53-3,.46-3.2.55-3.84-4.37,2.1-7.01.55-5.6-1.5l1.28-1.17c1.01-7.04,4.01-6.86,1.76-11.65,1.65-2.36,1.5-7.19-2.21-10.37-2.43-2.07-7.3-4.1-12.51-1.08-7.41,4.48-8.4,7.87-6.68,13.46.42,1.65,1.32,5.29,1.32,7.04.46.31,1.54,1.1,2.01,1.39,1.94,1.68,1.7,5.18,1.63,5.67-8.18-3.29-7.3,1.48-11.76,2.25-1.81,0-8.65,1.15-12.57,1.83-1.81.33-4.54,1.48-5.62,2.47-.9.82-.33.29-.11.09-.84.77-20.16,18.4-22.79,20.73-11.21,9.66-24.46,15.22-38.49,19.1-25.32,7.01-37.65,26.14-28.96,42.22,0,0,1.08-25.5,37.56-9.42,10.54,4.65,14.73,8.69,31.79,5.23,14.34-3.49,19.37,4.21,23.78,9.51-4.57,7.1-3.22,37.1-4.24,39.92,0,0-1.17,5.05-.55,7.7-3.49,7.01-.51,14.91-1.59,22.21l-.2-.04c-.95,1.19-1.3,1.54-.62,3.9,0,0,1.21,9.84-.6,25.48,1.65-.15,5.38.33,8.76-1.28-.79-5.85,5.34-25.52,5.18-26.47-.66-3.84,4.5-10.23,6.18-18.29.73-12.46,10.28-19.39,14.18-40.59.22-1.19.86-4.96,1.43-7.79.62.24,1.28.35,1.92.26,2.32,12.88,11.91,28.72,16.17,38.05,4.5,9.88-2.21,12.37,4.01,26.27,2.6,5.82,8.43,29.89,8.43,29.89,2.51-1.92,8.65.99,8.65.99-.22-2.29-1.9-46.23-2.1-49.98-.2-3.75-.6-5.65-1.9-7.24,0,0,2.16-6.33-.86-9.18-.31-2.54-3.37-45.51-7.98-55.45-2.05-4.39.86-9.48,1.35-9.86,5.34-1.5,4.63-8.14,10.76-7.52h0c11.76-5.34,18.66-13.46,14.69-20.14l.02.04Zm-20.84,14.03c-.62.62-2.21,2.87-1.85,1.68,3.18-10.94.86-18.93.95-18.95.18.04,2.76,4.72,8.03,7.39-3.4,2.67-4.21,7.1-7.1,9.88h-.02Z" fill="#fff"/><path d="m221.04,283.33l.09-.07s-.04.02-.09.07Z" fill="#fff"/><path d="m251.59,478.06c29.8,0,58.45,4.87,85.23,13.85-25.9-17.56-57.15-27.84-90.81-27.84-39.09,0-74.95,13.85-102.94,36.9,33.18-14.73,69.9-22.92,108.53-22.92" fill="#fff"/></g></svg>