<svg width="48" height="48" viewBox="0 0 48 48" fill="none" xmlns="http://www.w3.org/2000/svg">
<g id="Language Button" filter="url(#filter0_d_4935_330219)">
<g id="Rectangle 147">
<rect x="4" width="40" height="40" rx="6" fill="white" fill-opacity="0.2"/>
<rect x="4.5" y="0.5" width="39" height="39" rx="5.5" stroke="black" stroke-opacity="0.3"/>
</g>
<g id="Group 47365">
<path id="Vector" d="M24 30C29.5228 30 34 25.5228 34 20C34 14.4772 29.5228 10 24 10C18.4772 10 14 14.4772 14 20C14 25.5228 18.4772 30 24 30Z" fill="#F0F0F0"/>
<g id="Group">
<path id="Vector_2" d="M16.0664 13.9102C15.2809 14.9321 14.6886 16.1101 14.3438 17.3897H19.546L16.0664 13.9102Z" fill="#0052B4"/>
<path id="Vector_3" d="M33.6553 17.3897C33.3104 16.1101 32.7181 14.9321 31.9326 13.9102L28.4531 17.3897H33.6553Z" fill="#0052B4"/>
<path id="Vector_4" d="M14.3438 22.6094C14.6887 23.889 15.281 25.0669 16.0664 26.0889L19.5459 22.6094H14.3438Z" fill="#0052B4"/>
<path id="Vector_5" d="M30.0889 12.0665C29.0669 11.281 27.889 10.6887 26.6094 10.3438V15.546L30.0889 12.0665Z" fill="#0052B4"/>
<path id="Vector_6" d="M17.9102 27.9326C18.9321 28.7181 20.1101 29.3104 21.3897 29.6553V24.4531L17.9102 27.9326Z" fill="#0052B4"/>
<path id="Vector_7" d="M21.3896 10.3438C20.11 10.6887 18.9321 11.281 17.9102 12.0664L21.3896 15.5459V10.3438Z" fill="#0052B4"/>
<path id="Vector_8" d="M26.6094 29.6553C27.889 29.3104 29.0669 28.7181 30.0889 27.9326L26.6094 24.4531V29.6553Z" fill="#0052B4"/>
<path id="Vector_9" d="M28.4531 22.6094L31.9326 26.0889C32.7181 25.067 33.3104 23.889 33.6553 22.6094H28.4531Z" fill="#0052B4"/>
</g>
<g id="Group_2">
<path id="Vector_10" d="M33.9154 18.6957H25.3044H25.3044V10.0846C24.8774 10.0291 24.4421 10 24 10C23.5579 10 23.1226 10.0291 22.6957 10.0846V18.6956V18.6956H14.0846C14.0291 19.1226 14 19.5579 14 20C14 20.4421 14.0291 20.8774 14.0846 21.3043H22.6956H22.6956V29.9154C23.1226 29.9709 23.5579 30 24 30C24.4421 30 24.8774 29.971 25.3043 29.9154V21.3044V21.3044H33.9154C33.9709 20.8774 34 20.4421 34 20C34 19.5579 33.9709 19.1226 33.9154 18.6957Z" fill="#D80027"/>
<path id="Vector_11" d="M26.6094 22.6094L31.0717 27.0718C31.277 26.8666 31.4727 26.6521 31.6595 26.4298L27.8391 22.6094H26.6094V22.6094Z" fill="#D80027"/>
<path id="Vector_12" d="M21.3921 22.6094H21.392L16.9297 27.0717C17.1348 27.2769 17.3493 27.4727 17.5717 27.6595L21.3921 23.839V22.6094Z" fill="#D80027"/>
<path id="Vector_13" d="M21.39 17.3921V17.3921L16.9277 12.9297C16.7224 13.1348 16.5266 13.3493 16.3398 13.5717L20.1603 17.3921L21.39 17.3921Z" fill="#D80027"/>
<path id="Vector_14" d="M26.6094 17.39L31.0718 12.9276C30.8666 12.7224 30.6521 12.5266 30.4298 12.3398L26.6094 16.1603V17.39Z" fill="#D80027"/>
</g>
</g>
</g>
<defs>
<filter id="filter0_d_4935_330219" x="0" y="0" width="48" height="48" filterUnits="userSpaceOnUse" color-interpolation-filters="sRGB">
<feFlood flood-opacity="0" result="BackgroundImageFix"/>
<feColorMatrix in="SourceAlpha" type="matrix" values="0 0 0 0 0 0 0 0 0 0 0 0 0 0 0 0 0 0 127 0" result="hardAlpha"/>
<feOffset dy="4"/>
<feGaussianBlur stdDeviation="2"/>
<feComposite in2="hardAlpha" operator="out"/>
<feColorMatrix type="matrix" values="0 0 0 0 0 0 0 0 0 0 0 0 0 0 0 0 0 0 0.25 0"/>
<feBlend mode="normal" in2="BackgroundImageFix" result="effect1_dropShadow_4935_330219"/>
<feBlend mode="normal" in="SourceGraphic" in2="effect1_dropShadow_4935_330219" result="shape"/>
</filter>
</defs>
</svg>
