<svg width="540" height="655" viewBox="0 0 540 655" fill="none" xmlns="http://www.w3.org/2000/svg">
<path fill-rule="evenodd" clip-rule="evenodd" d="M418.143 109.456C436.648 123.683 450.263 143.32 457.097 165.639V165.919C467.303 183.242 449.512 204.217 419.08 217.982C410.131 217.097 406.703 221.995 403.063 227.197C400.152 231.356 397.105 235.711 390.988 237.458C388.383 241.102 386.705 245.326 386.101 249.764C385.497 254.202 385.986 258.721 387.524 262.928C397.933 285.386 405.329 373.273 407.514 399.236C407.825 402.934 408.031 405.376 408.124 406.193C415.99 413.591 410.372 429.977 410.372 429.977C414.082 435.482 415.8 442.09 415.241 448.705C415.477 452.804 416.377 475.306 417.383 500.43C418.632 531.65 420.043 566.919 420.544 575.961C462.574 588.062 502.675 606.765 539.277 631.59C468.361 607.84 394.061 595.76 319.274 595.82C222.574 595.676 126.921 615.837 38.5039 654.999C93.6651 609.531 159.225 579.267 228.721 566.522C230.811 547.11 231.029 527.536 229.37 508.071C227.661 502.223 228.458 501.216 230.682 498.406C230.773 498.291 230.867 498.173 230.962 498.052H231.43C232.509 490.787 231.986 483.302 231.462 475.814C230.623 463.803 229.783 451.783 235.55 440.652C234.914 433.972 235.389 427.232 236.955 420.707C237.787 418.449 238.006 409.137 238.294 396.877C238.915 370.504 239.856 330.49 247.91 317.706C247.024 316.646 246.131 315.546 245.219 314.424C234.377 301.076 220.941 284.535 186.391 293.173C149.043 300.801 135.567 294.403 115.69 284.967C112.145 283.283 108.395 281.503 104.271 279.689C9.97757 238.489 7.16849 304.035 7.16849 304.035C-15.3045 262.46 16.5322 213.019 82.0785 194.853C118.51 186.077 152.498 169.211 181.521 145.507C188.263 139.514 238.266 93.9122 240.42 91.9459C244.738 88.7944 249.69 86.6215 254.933 85.5784C265.14 83.7993 282.744 80.8965 287.425 80.8965C291.549 80.1709 293.917 78.1787 296.181 76.2748C300.343 72.7739 304.15 69.5717 317.858 75.0911C318.229 72.4821 318.046 69.8241 317.32 67.2909C316.594 64.7576 315.341 62.4059 313.644 60.3899L308.4 56.8318C307.802 50.6908 306.674 44.6129 305.029 38.6661C300.535 24.2459 303.531 15.444 322.259 3.83293C327.273 0.904714 333.072 -0.397427 338.857 0.105631C344.642 0.608689 350.13 2.89225 354.564 6.64208C358.535 9.70523 361.288 14.0791 362.335 18.9839C363.381 23.8887 362.651 29.0056 360.275 33.4224C363.695 40.7032 362.436 43.5328 360.288 48.3609C358.79 51.7291 356.858 56.0701 355.781 63.5737L352.41 66.57C348.758 71.9074 355.593 75.8402 366.924 70.4092C365.981 71.8616 365.367 73.5024 365.124 75.2168C364.882 76.9312 365.016 78.6778 365.519 80.3347C372.029 85.06 379.099 87.0181 386.249 88.9985C391.852 90.55 397.503 92.1153 402.974 95.0359C406.435 96.1235 409.601 97.9882 412.23 100.488C414.859 102.987 416.882 106.055 418.143 109.456ZM249.814 563.209C267.902 560.84 286.208 559.649 304.622 559.676C335.887 559.638 366.886 563.114 397.066 569.934C393.246 554.518 382.101 510.44 376.568 498.145C367.853 478.688 368.926 467.868 369.907 457.984C370.738 449.603 371.503 441.895 366.175 430.164C363.332 423.921 359.557 416.543 355.42 408.458C343.61 385.378 328.85 356.532 324.412 331.845C322.729 332.081 321.014 331.854 319.45 331.19C318.584 335.411 317.686 340.446 316.957 344.54C316.424 347.529 315.98 350.018 315.704 351.322C310.444 380.079 301.133 398.668 293.202 414.5C286.026 428.826 279.981 440.895 279.092 456.196C277.058 465.792 272.997 474.553 269.466 482.173C265.52 490.687 262.235 497.777 263.173 503.014C263.287 503.864 261.92 509.068 260.011 516.333C256.488 529.746 251.12 550.182 249.814 563.209ZM319.274 595.82C319.197 595.82 319.119 595.82 319.042 595.82H319.416C319.369 595.82 319.322 595.82 319.274 595.82ZM401.392 204.129C402.103 203.267 402.788 202.437 403.255 201.97L402.974 201.595C406.646 198.366 409.064 194.029 411.521 189.621C414.265 184.698 417.058 179.688 421.702 176.032C413.375 171.541 406.247 165.119 400.914 157.305C404.203 173.576 403.366 190.412 398.48 206.277C397.818 208.46 399.68 206.203 401.392 204.129Z" fill="#38414A" fill-opacity="0.05"/>
</svg>
